<svg width="24" height="26" viewBox="0 0 24 26" fill="none" xmlns="http://www.w3.org/2000/svg">
<g clip-path="url(#clip0)">
<path d="M21 20.3902V25.0956C20.8906 25.0303 20.7344 24.9323 20.5312 24.8016C20.3281 24.6708 19.9062 24.3114 19.2656 23.7232C18.625 23.135 17.9844 22.4488 17.3438 21.6646C16.5781 21.8607 15.7969 21.9587 15 21.9587C13.8594 21.9587 12.8086 21.8362 11.8477 21.5911C10.8867 21.346 10.1016 21.0437 9.49219 20.6843C8.88281 20.3249 8.36328 19.9246 7.93359 19.4834C7.50391 19.0423 7.19922 18.6338 7.01953 18.2581C6.83984 17.8823 6.75 17.5473 6.75 17.2533H9C11.0156 17.2533 12.8086 16.8856 14.3789 16.1504C15.9492 15.4152 17.1953 14.3287 18.1172 12.8909C19.0391 11.4532 19.5 9.77031 19.5 7.84239C22.5 9.4272 24 11.6492 24 14.5084C24 16.8448 23 18.8054 21 20.3902ZM9 15.6848C8.20312 15.6848 7.42188 15.5867 6.65625 15.3907C6.01562 16.1749 5.39062 16.853 4.78125 17.4248C4.17188 17.9966 3.71875 18.3724 3.42188 18.5522L3 18.8217V14.1163C1 12.5315 0 10.5709 0 8.23451C0 6.74772 0.402344 5.37122 1.20703 4.105C2.01172 2.83878 3.10547 1.83806 4.48828 1.10284C5.87109 0.367612 7.37891 0 9.01172 0C10.6445 0 12.1523 0.367612 13.5352 1.10284C14.918 1.83806 16.0078 2.83878 16.8047 4.105C17.6016 5.37122 18 6.74772 18 8.23451C18 9.72129 17.5938 11.0365 16.7812 12.1802C15.9688 13.3239 14.8828 14.1939 13.5234 14.7903C12.1641 15.3866 10.6562 15.6848 9 15.6848ZM9 1.56848C7.64062 1.56848 6.38672 1.84623 5.23828 2.40173C4.08984 2.95723 3.17969 3.71697 2.50781 4.68093C1.83594 5.64489 1.5 6.69462 1.5 7.83013C1.5 8.96565 1.83594 10.0154 2.50781 10.9793C3.17969 11.9433 4.08984 12.7071 5.23828 13.2708C6.38672 13.8345 7.64062 14.1163 9 14.1163C10.3594 14.1163 11.6133 13.8345 12.7617 13.2708C13.9102 12.7071 14.8203 11.9433 15.4922 10.9793C16.1641 10.0154 16.5 8.96565 16.5 7.83013C16.5 6.69462 16.1641 5.64489 15.4922 4.68093C14.8203 3.71697 13.9102 2.95723 12.7617 2.40173C11.6133 1.84623 10.3594 1.56848 9 1.56848Z" fill="#44546A"/>
</g>
<defs>
<clipPath id="clip0">
<rect width="24" height="25.0956" fill="white"/>
</clipPath>
</defs>
</svg>
