<svg width="20" height="22" viewBox="0 0 20 22" fill="none" xmlns="http://www.w3.org/2000/svg">
<path d="M6.14286 15.4444H6.15571M6.14286 3.22222H3.57143C2.88944 3.22222 2.23539 3.45635 1.75315 3.8731C1.27092 4.28984 1 4.85507 1 5.44444V18.7778C1 19.3671 1.27092 19.9324 1.75315 20.3491C2.23539 20.7659 2.88944 21 3.57143 21H16.4286C17.1106 21 17.7646 20.7659 18.2468 20.3491C18.7291 19.9324 19 19.3671 19 18.7778V5.44444C19 4.85507 18.7291 4.28984 18.2468 3.8731C17.7646 3.45635 17.1106 3.22222 16.4286 3.22222H13.8571H6.14286ZM6.14286 3.22222C6.14286 3.81159 6.41378 4.37682 6.89601 4.79357C7.37825 5.21032 8.0323 5.44444 8.71429 5.44444H11.2857C11.9677 5.44444 12.6218 5.21032 13.104 4.79357C13.5862 4.37682 13.8571 3.81159 13.8571 3.22222H6.14286ZM6.14286 3.22222C6.14286 2.63285 6.41378 2.06762 6.89601 1.65087C7.37825 1.23413 8.0323 1 8.71429 1H11.2857C11.9677 1 12.6218 1.23413 13.104 1.65087C13.5862 2.06762 13.8571 2.63285 13.8571 3.22222H6.14286ZM10 11H13.8571H10ZM10 15.4444H13.8571H10ZM6.14286 11H6.15571H6.14286Z" stroke="#44546A" stroke-width="2" stroke-linecap="round" stroke-linejoin="round"/>
</svg>
