<svg width="21" height="20" viewBox="0 0 21 20" fill="none" xmlns="http://www.w3.org/2000/svg">
<path d="M8.46063 5.598C9.02294 3.8489 11.4977 3.8489 12.06 5.598C12.3113 6.37974 13.0401 6.90983 13.8612 6.90983C15.6985 6.90983 16.4482 9.27587 14.9674 10.3633C14.3065 10.8486 14.0271 11.7169 14.2781 12.4975C14.8384 14.2402 12.8531 15.7235 11.3776 14.6401C10.7127 14.1519 9.80789 14.1519 9.14303 14.6401C7.66755 15.7235 5.68227 14.2402 6.24253 12.4975C6.49348 11.7169 6.21417 10.8486 5.55326 10.3633C4.07239 9.27587 4.82214 6.90983 6.65938 6.90983C7.48051 6.90983 8.20931 6.37974 8.46063 5.598Z" fill="#FF7F23"/>
</svg>
