<svg width="30" height="30" viewBox="0 0 30 30" fill="none" xmlns="http://www.w3.org/2000/svg">
<rect width="30" height="30" rx="15" fill="#EEE5F1" fill-opacity="0.8"/>
<path d="M14.847 9.0105L15 9C15.2719 9.00001 15.5345 9.09846 15.7394 9.27715C15.9443 9.45584 16.0775 9.70267 16.1145 9.972L16.125 10.125V13.8735L19.875 13.875C20.1469 13.875 20.4095 13.9735 20.6144 14.1522C20.8193 14.3308 20.9525 14.5777 20.9895 14.847L21 15C21 15.2719 20.9015 15.5345 20.7228 15.7394C20.5442 15.9443 20.2973 16.0775 20.028 16.1145L19.875 16.125L16.125 16.1235V19.875C16.125 20.1469 16.0265 20.4095 15.8478 20.6144C15.6692 20.8193 15.4223 20.9525 15.153 20.9895L15 21C14.7281 21 14.4655 20.9015 14.2606 20.7228C14.0557 20.5442 13.9225 20.2973 13.8855 20.028L13.875 19.875V16.1235L10.125 16.125C9.85314 16.125 9.59049 16.0265 9.3856 15.8478C9.18072 15.6692 9.04747 15.4223 9.0105 15.153L9 15C9.00001 14.7281 9.09846 14.4655 9.27715 14.2606C9.45584 14.0557 9.70267 13.9225 9.972 13.8855L10.125 13.875L13.875 13.8735V10.125C13.875 9.85314 13.9735 9.59049 14.1522 9.3856C14.3308 9.18072 14.5777 9.04747 14.847 9.0105L15 9L14.847 9.0105Z" fill="#540174"/>
</svg>
