<svg width="30" height="30" viewBox="0 0 30 30" fill="none" xmlns="http://www.w3.org/2000/svg">
<path d="M14.9999 28.5665C15.5249 28.5544 16.0286 28.3571 16.4221 28.0093C16.8156 27.6616 17.0734 27.186 17.1499 26.6665H12.7666C12.8453 27.2001 13.1152 27.6869 13.526 28.0364C13.9368 28.3859 14.4606 28.5743 14.9999 28.5665Z" fill="white"/>
<path d="M27.0915 23.192C26.2879 22.4756 25.5844 21.6544 24.9998 20.7503C24.3617 19.5024 23.9792 18.1397 23.8748 16.742V12.6253C23.8715 12.1253 23.8269 11.6264 23.7415 11.1337C23.0856 11.0025 22.4552 10.7662 21.8748 10.4337C22.0961 11.146 22.2084 11.8877 22.2082 12.6337V16.7503C22.3103 18.4553 22.7793 20.1182 23.5832 21.6253C24.1585 22.537 24.8412 23.3763 25.6165 24.1253H4.27484C5.05018 23.3763 5.73284 22.537 6.30817 21.6253C7.11201 20.1182 7.58103 18.4553 7.68317 16.7503V12.6253C7.67878 11.6609 7.86468 10.7051 8.23021 9.81259C8.59573 8.92011 9.13372 8.10849 9.81335 7.42421C10.493 6.73993 11.3009 6.19643 12.1909 5.82484C13.0809 5.45324 14.0354 5.26084 14.9998 5.25866C16.4113 5.25979 17.7911 5.6772 18.9665 6.45866C18.8369 5.98281 18.7642 5.49329 18.7498 5.00033V4.47533C17.8797 4.04729 16.9449 3.76573 15.9832 3.64199V2.59199C15.9832 2.29694 15.866 2.01397 15.6573 1.80534C15.4487 1.5967 15.1657 1.47949 14.8707 1.47949C14.5756 1.47949 14.2926 1.5967 14.084 1.80534C13.8754 2.01397 13.7582 2.29694 13.7582 2.59199V3.68366C11.6046 3.98745 9.63365 5.06011 8.20919 6.7036C6.78473 8.34709 6.00294 10.4504 6.00817 12.6253V16.742C5.9038 18.1397 5.52132 19.5024 4.88317 20.7503C4.30891 21.6523 3.61667 22.4734 2.82484 23.192C2.73595 23.2701 2.66471 23.3662 2.61585 23.474C2.567 23.5817 2.54165 23.6987 2.5415 23.817V24.9503C2.5415 25.1713 2.6293 25.3833 2.78558 25.5396C2.94186 25.6959 3.15382 25.7837 3.37484 25.7837H26.5415C26.7625 25.7837 26.9745 25.6959 27.1308 25.5396C27.287 25.3833 27.3748 25.1713 27.3748 24.9503V23.817C27.3747 23.6987 27.3493 23.5817 27.3005 23.474C27.2516 23.3662 27.1804 23.2701 27.0915 23.192Z" fill="white"/>
<path d="M24.9999 9.16683C27.3011 9.16683 29.1666 7.30135 29.1666 5.00016C29.1666 2.69898 27.3011 0.833496 24.9999 0.833496C22.6987 0.833496 20.8333 2.69898 20.8333 5.00016C20.8333 7.30135 22.6987 9.16683 24.9999 9.16683Z" fill="#C94130"/>
</svg>
