<svg width="33" height="32" viewBox="0 0 33 32" fill="none" xmlns="http://www.w3.org/2000/svg">
<ellipse cx="16.5" cy="16" rx="16.5" ry="16" fill="#F1608A"/>
<path d="M20.3334 10C20.5085 9.82494 20.7163 9.68605 20.9451 9.59129C21.1739 9.49653 21.4191 9.44775 21.6667 9.44775C21.9143 9.44775 22.1595 9.49653 22.3883 9.59129C22.6171 9.68605 22.8249 9.82494 23 10C23.1751 10.1751 23.314 10.383 23.4088 10.6118C23.5036 10.8406 23.5523 11.0857 23.5523 11.3334C23.5523 11.581 23.5036 11.8262 23.4088 12.055C23.314 12.2837 23.1751 12.4916 23 12.6667L14 21.6667L10.3334 22.6667L11.3334 19L20.3334 10Z" stroke="white" stroke-width="2" stroke-linecap="round" stroke-linejoin="round"/>
</svg>
