<svg width="24" height="27" viewBox="0 0 24 27" fill="none" xmlns="http://www.w3.org/2000/svg">
<path d="M23.4552 6.0655L20.9263 0.767137C20.7003 0.291512 20.2989 0 19.8703 0H4.12817C3.69955 0 3.2982 0.291512 3.0722 0.767137L0.543326 6.0655C-0.762024 8.80162 0.395257 12.6066 2.83451 13.0413C3.00985 13.072 3.1891 13.0874 3.36834 13.0874C4.52172 13.0874 5.54262 12.4225 6.24401 11.3945C6.94539 12.4225 7.97019 13.0874 9.11967 13.0874C10.2731 13.0874 11.294 12.4225 11.9953 11.3945C12.6967 12.4225 13.7215 13.0874 14.871 13.0874C16.0244 13.0874 17.0453 12.4225 17.7467 11.3945C18.452 12.4225 19.4729 13.0874 20.6223 13.0874C20.8055 13.0874 20.9808 13.072 21.1562 13.0413C23.6032 12.6117 24.7644 8.80673 23.4552 6.0655ZM20.6301 14.729C20.2405 14.729 19.8547 14.6523 19.4806 14.5347V19.6387H4.51783V14.5347C4.14376 14.6472 3.758 14.729 3.36834 14.729C3.13454 14.729 2.89685 14.7086 2.66696 14.6677C2.44875 14.6267 2.23444 14.5603 2.02792 14.4835V24.5484C2.02792 25.4536 2.58513 26.1849 3.27482 26.1849H20.7314C21.4211 26.1849 21.9783 25.4536 21.9783 24.5484V14.4835C21.7679 14.5654 21.5575 14.6319 21.3393 14.6677C21.1016 14.7086 20.8678 14.729 20.6301 14.729Z" fill="white"/>
</svg>
