<?xml version="1.0" standalone="no"?>
<!DOCTYPE svg PUBLIC "-//W3C//DTD SVG 20010904//EN"
 "http://www.w3.org/TR/2001/REC-SVG-20010904/DTD/svg10.dtd">
<svg version="1.0" xmlns="http://www.w3.org/2000/svg"
 width="320.000000pt" height="640.000000pt" viewBox="0 0 320.000000 640.000000"
 preserveAspectRatio="xMidYMid meet">

<g transform="translate(0.000000,640.000000) scale(0.100000,-0.100000)"
fill="#000000" stroke="none">
<path d="M0 5951 l0 -450 28 -4 c27 -4 27 -4 1 -6 -24 -1 -25 -4 -27 -66 l-2
-66 38 8 c68 13 118 5 193 -30 41 -19 87 -49 104 -68 16 -19 23 -28 15 -21
-19 16 -30 15 -30 -3 0 -8 -5 -15 -11 -15 -5 0 -7 -4 -4 -10 3 -5 21 -10 39
-10 28 0 36 -5 49 -32 8 -18 17 -53 20 -78 5 -39 5 -41 -5 -20 -9 21 -12 22
-15 8 -3 -10 -11 -18 -20 -18 -12 0 -13 -3 -4 -14 9 -11 9 -15 -1 -20 -9 -4
-8 -5 2 -4 39 5 84 -32 60 -47 -6 -4 -10 -15 -10 -26 0 -31 -27 -77 -50 -84
-11 -3 -20 -14 -20 -22 0 -9 -3 -13 -6 -10 -4 3 -16 2 -26 -4 -19 -10 -19 -12
13 -47 l34 -37 -40 35 c-22 19 -44 39 -50 43 -5 5 -1 5 10 2 11 -3 4 3 -15 14
-37 21 -66 28 -40 10 12 -9 12 -10 -3 -5 -10 3 -21 6 -23 6 -3 0 -3 4 1 9 3 5
1 12 -5 16 -5 3 -10 20 -10 36 0 20 -6 32 -19 37 -19 7 -65 64 -90 111 -10 18
-10 22 -1 16 8 -5 11 -3 8 6 -3 8 -12 13 -22 11 -9 -2 -16 1 -16 5 0 4 -11 22
-25 38 l-24 30 -1 -27 c0 -18 4 -26 13 -22 15 5 47 -45 47 -76 0 -32 -18 -60
-40 -60 -17 0 -20 -7 -19 -37 0 -21 3 -32 6 -25 2 6 13 12 24 12 10 0 19 5 19
11 0 7 12 10 30 7 16 -2 31 -1 32 4 2 5 14 -5 26 -22 28 -38 22 -50 -26 -50
-20 0 -54 -5 -75 -11 l-37 -10 0 -79 c0 -81 4 -91 24 -67 6 8 34 21 63 30 42
13 58 14 83 4 25 -9 33 -9 39 2 7 11 15 9 42 -10 19 -13 45 -34 59 -46 14 -13
31 -23 39 -23 11 0 11 -3 1 -15 -7 -8 -9 -15 -5 -15 4 0 -3 -8 -15 -18 -19
-15 -20 -20 -8 -30 11 -9 24 0 64 46 68 77 120 154 135 199 6 21 20 55 31 77
18 36 22 38 54 33 40 -7 44 0 9 13 -16 6 -25 17 -25 31 0 11 -13 33 -30 47
l-30 26 31 13 c65 27 118 12 246 -73 40 -27 55 -43 63 -72 12 -46 12 -52 0
-52 -5 0 -10 9 -10 19 0 11 -7 27 -16 36 -13 13 -19 13 -32 3 -9 -7 -13 -8 -9
-2 10 17 -66 86 -86 78 -25 -9 -18 -35 14 -46 9 -4 23 -22 32 -41 14 -29 21
-34 43 -29 26 5 27 3 21 -26 -4 -20 -2 -32 6 -36 9 -3 9 -5 -1 -5 -10 -1 -10
-6 -2 -21 6 -11 7 -20 3 -20 -4 0 -1 -5 7 -11 11 -7 12 -12 3 -15 -7 -3 -9
-12 -6 -20 3 -8 2 -26 -2 -42 l-7 -27 -18 40 c-10 22 -19 48 -19 58 -1 9 -6
17 -12 17 -7 0 -8 -7 -3 -17 11 -26 21 -143 12 -143 -5 0 -8 -6 -8 -13 0 -8
-8 -21 -19 -31 -16 -14 -20 -15 -30 -2 -15 17 -36 11 -45 -12 -4 -9 -15 -33
-26 -52 -10 -19 -19 -45 -20 -58 0 -12 -7 -33 -15 -46 -22 -34 -27 -66 -10
-66 16 0 13 -15 -18 -78 -25 -52 -46 -65 -98 -60 -35 3 -39 1 -39 -20 0 -13
-3 -22 -7 -20 -5 2 -31 14 -60 27 -56 25 -62 35 -98 164 -8 31 -20 57 -25 57
-6 0 -10 -4 -10 -10 0 -5 -4 -10 -10 -10 -16 0 -12 30 5 36 17 7 21 44 5 44
-5 0 -10 7 -10 16 0 9 6 14 13 11 6 -2 19 3 27 11 13 14 12 15 -2 9 -9 -3 -19
-1 -21 6 -3 7 -15 0 -30 -17 -14 -17 -24 -33 -21 -38 3 -4 1 -8 -4 -8 -5 0 -9
-7 -9 -15 0 -8 4 -15 9 -15 4 0 8 -6 8 -14 0 -15 -27 -29 -40 -21 -5 3 -11 1
-15 -5 -3 -5 -18 -10 -33 -10 -22 0 -24 2 -12 11 12 8 10 10 -9 5 -13 -3 -32
-1 -42 5 -10 5 -30 7 -44 3 -20 -5 -25 -12 -25 -36 0 -27 3 -30 24 -24 14 3
32 3 42 -1 16 -6 16 -7 0 -19 -10 -6 -13 -15 -8 -18 5 -3 15 1 22 9 15 18 29
19 65 5 15 -6 23 -15 19 -21 -4 -7 -9 -8 -13 -1 -3 6 -19 8 -34 5 -21 -4 -25
-8 -15 -14 9 -6 5 -9 -14 -9 -35 0 -59 10 -52 21 3 5 -4 9 -15 9 -14 0 -21 -6
-21 -20 0 -11 6 -20 13 -20 8 0 7 -4 -3 -10 -13 -9 -13 -11 0 -20 9 -6 10 -10
3 -10 -9 0 -12 -76 -12 -315 l0 -316 33 -47 c49 -68 83 -140 108 -229 30 -105
32 -304 4 -408 -25 -93 -75 -211 -114 -268 l-32 -46 0 -957 0 -958 30 29 c19
18 26 32 21 39 -16 19 -18 115 -3 121 22 8 72 6 72 -4 0 -15 33 -22 42 -9 6
10 8 10 8 1 0 -7 6 -13 14 -13 29 0 99 -46 110 -72 8 -17 32 -38 66 -56 47
-24 55 -32 52 -53 -2 -14 4 -32 12 -39 26 -21 19 -27 -29 -24 -25 1 -47 -2
-50 -7 -9 -13 28 -59 42 -54 7 2 15 -1 19 -7 4 -6 3 -8 -4 -4 -6 3 -23 -9 -38
-29 l-26 -35 41 -45 c40 -43 45 -65 17 -65 -24 0 -36 -22 -20 -37 17 -18 18
-55 2 -71 -8 -8 -56 -12 -147 -13 -157 -1 -223 -9 -229 -27 -3 -11 0 -12 16
-3 26 14 175 14 223 1 19 -5 48 -23 63 -39 26 -27 27 -32 16 -65 -6 -20 -14
-35 -18 -35 -18 3 -22 -3 -13 -19 13 -24 3 -60 -18 -65 -9 -3 45 -5 121 -6
l136 -1 89 52 c48 28 113 70 143 93 81 60 190 129 196 122 11 -10 -44 -57 -60
-51 -9 3 -16 1 -16 -6 0 -6 4 -9 9 -6 5 4 11 0 14 -6 3 -9 13 -3 31 15 24 25
30 39 27 59 0 6 152 68 169 68 11 0 0 -39 -13 -47 -6 -3 -7 -1 -3 5 5 8 1 10
-9 6 -9 -4 -14 -13 -11 -21 7 -17 -11 -54 -31 -66 -11 -7 -11 -12 -3 -22 7 -9
9 -27 5 -47 l-7 -33 24 25 c13 14 46 55 73 93 48 65 69 79 92 56 11 -11 16 -9
58 29 7 6 19 12 25 12 7 0 10 7 6 15 -4 12 3 15 32 14 30 0 33 -2 17 -9 -18
-8 -18 -9 5 -10 14 -2 31 -2 39 -1 7 2 10 -2 6 -8 -3 -6 -2 -11 4 -11 6 0 8
-6 6 -12 -4 -10 10 -13 52 -12 32 0 63 -3 70 -8 7 -5 14 -5 18 2 8 13 25 3 25
-16 0 -8 -18 -22 -40 -31 -22 -10 -40 -21 -40 -25 0 -12 22 -21 29 -11 3 6 51
20 106 33 88 20 129 29 224 47 20 3 22 6 10 14 -22 14 0 11 75 -11 84 -24 115
-43 128 -80 5 -16 18 -32 29 -35 11 -4 17 -10 14 -15 -3 -4 5 -10 16 -13 17
-5 19 -9 9 -26 -9 -17 -8 -21 5 -21 17 0 35 -38 35 -76 0 -23 2 -24 82 -24 77
0 84 2 103 26 18 23 24 25 42 15 12 -6 39 -11 60 -11 21 -1 49 -7 63 -15 14
-8 39 -14 55 -14 29 0 29 0 -10 15 -74 28 -178 55 -192 50 -17 -7 -17 8 1 23
8 6 19 25 26 41 7 16 16 28 19 25 4 -2 8 1 8 8 0 7 12 34 25 60 23 44 26 46
31 26 9 -34 20 -16 22 37 2 28 10 53 20 63 15 14 15 12 -1 -14 l-19 -30 35 25
c19 14 38 25 43 25 9 0 11 15 1 23 -4 4 -4 1 1 -7 6 -10 4 -12 -5 -6 -10 6
-10 11 3 20 10 7 17 17 17 22 0 5 12 15 26 22 18 8 25 17 21 30 -3 13 2 21 14
24 13 4 19 14 19 36 0 25 -4 31 -22 31 -18 0 -20 2 -8 10 18 11 55 3 95 -22
36 -21 58 -24 31 -3 -11 8 -21 22 -22 31 -1 9 0 13 3 10 3 -3 15 12 25 34 13
25 27 40 38 40 11 0 21 4 25 10 3 5 12 7 20 3 8 -3 15 0 15 5 0 15 34 24 64
16 25 -6 25 -7 9 -20 -17 -13 -17 -13 3 -14 18 0 20 -5 16 -27 -2 -16 -9 -33
-13 -39 -5 -6 -10 -24 -11 -40 -3 -32 -25 -55 -48 -49 -15 4 -49 -11 -40 -17
60 -44 91 -57 115 -48 20 8 27 6 31 -5 18 -47 -73 -205 -238 -412 -8 -10 1
-13 40 -13 44 0 52 3 57 23 8 24 79 97 95 97 14 0 -5 -37 -37 -71 -20 -22 -22
-28 -9 -38 12 -10 20 -5 47 28 39 49 48 47 18 -3 l-21 -36 101 0 101 0 0 820
c0 495 -4 820 -9 820 -14 0 -71 50 -71 62 0 6 13 -4 29 -21 16 -17 34 -31 39
-31 17 0 16 261 -1 284 -11 15 -16 16 -22 6 -5 -8 -4 -11 2 -7 6 4 13 1 16 -7
3 -8 -2 -16 -11 -19 -9 -3 -26 -8 -37 -12 -16 -5 -17 -5 -5 4 12 8 12 13 3 22
-9 9 -16 9 -30 -2 -10 -7 -15 -10 -12 -6 4 4 -7 22 -22 38 -16 17 -27 35 -24
39 5 8 -86 133 -105 145 -25 15 -1 125 28 125 7 0 15 13 18 29 7 36 47 76 67
68 16 -6 23 23 31 116 2 26 12 59 21 73 14 22 23 25 56 22 l39 -4 0 209 c0
191 -2 210 -20 235 -34 48 -49 172 -20 172 4 0 12 17 18 38 9 36 10 36 10 -21
0 -32 3 -61 6 -64 3 -4 6 35 6 87 0 78 -2 91 -14 81 -10 -8 -16 -9 -21 -1 -3
5 -11 10 -17 10 -6 0 -5 -9 4 -22 33 -53 -2 -68 -152 -67 -77 0 -100 6 -100
24 0 7 -15 25 -32 40 -28 22 -29 25 -10 20 21 -6 23 -4 20 28 -3 44 27 92 50
81 9 -3 27 -9 38 -11 15 -4 20 -10 17 -24 -3 -10 0 -19 6 -19 5 0 17 -12 26
-27 9 -16 14 -21 12 -13 -2 8 0 23 4 32 7 12 3 21 -13 32 l-21 15 24 21 c14
11 34 19 47 16 12 -2 25 1 28 5 3 5 0 9 -5 9 -19 0 -12 20 7 20 13 1 11 4 -8
15 -14 7 -25 17 -24 22 1 4 -6 13 -15 20 -14 11 -13 12 6 13 12 0 30 3 40 6
16 5 16 4 -1 -10 -19 -16 -19 -16 2 -16 12 0 22 -4 22 -10 0 -5 14 -10 30 -10
17 0 30 -4 30 -9 0 -20 -13 -41 -25 -41 -8 0 -13 -8 -12 -18 1 -14 7 -17 29
-14 l28 4 -1 105 0 105 -26 -23 c-13 -13 -24 -19 -23 -14 4 20 0 32 -20 52
-17 19 -17 23 -4 33 12 10 12 16 2 29 -11 14 -11 14 4 3 9 -8 15 -19 12 -26
-3 -9 5 -13 26 -14 26 -1 30 3 30 26 0 20 -3 23 -12 14 -7 -7 -16 -12 -21 -12
-5 0 1 9 14 19 21 17 22 22 11 40 -10 17 -10 21 0 22 7 0 3 5 -9 11 -25 12
-30 33 -10 41 9 4 9 6 -1 6 -7 1 -15 -6 -18 -14 -4 -8 -10 -15 -15 -15 -19 0
-8 22 26 53 35 32 41 65 16 90 -11 11 -41 -30 -34 -48 3 -10 -2 -12 -16 -8
-12 3 -21 10 -21 15 0 5 -14 -5 -31 -22 -31 -30 -49 -35 -56 -13 -2 6 2 17 10
24 16 17 29 49 19 48 -26 -4 -21 4 12 21 38 19 68 21 82 7 4 -4 18 -7 31 -7
21 0 23 5 23 44 0 26 -5 47 -12 50 -10 5 -10 7 0 12 6 3 12 13 11 22 0 11 -3
12 -6 5 -3 -9 -10 -10 -24 -3 -12 7 -19 7 -19 1 0 -5 -13 -12 -30 -16 -16 -4
-30 -11 -30 -17 0 -6 10 -8 25 -4 19 5 23 3 19 -9 -4 -8 -1 -15 5 -15 6 0 11
5 11 10 0 12 27 14 33 2 3 -4 3 -19 0 -35 -6 -33 -31 -36 -57 -5 -17 20 -20
20 -31 5 -15 -21 -34 -21 -59 -2 -15 11 -16 15 -5 15 8 0 24 7 35 16 18 15 18
15 -3 5 -12 -6 -33 -11 -47 -11 -17 0 -26 -6 -26 -16 0 -14 -2 -14 -15 0 -8 8
-15 19 -15 24 0 15 34 41 59 45 12 2 26 9 31 17 4 7 17 11 29 7 12 -3 21 -1
21 4 0 13 44 11 57 -2 7 -7 18 -9 26 -6 12 5 15 33 16 152 l2 146 -26 -7 c-31
-8 -32 6 -1 37 22 22 24 32 25 147 1 119 1 122 -19 112 -16 -9 -18 -8 -14 5 4
8 12 15 20 15 8 0 14 7 14 16 0 10 -6 14 -15 10 -10 -4 -15 1 -15 15 0 12 -4
17 -11 13 -6 -3 -9 -15 -6 -25 3 -11 2 -19 -3 -19 -13 0 -18 38 -7 49 8 8 5
11 -9 11 -11 0 -30 8 -44 17 -22 16 -23 16 -17 -1 6 -14 3 -16 -16 -11 -12 4
-32 13 -44 21 -20 13 -23 13 -23 0 0 -9 -15 -17 -40 -21 -23 -4 -54 -14 -70
-22 -16 -8 -35 -11 -41 -7 -7 4 -9 3 -5 -4 15 -24 -59 -26 -103 -2 -28 14 -48
3 -25 -14 24 -18 6 -24 -42 -14 l-42 9 42 42 c22 23 42 49 44 57 2 8 11 24 21
35 30 34 52 75 46 85 -12 19 15 19 28 -1 9 -13 17 -16 22 -10 3 6 1 11 -5 11
-6 0 -9 4 -5 10 3 5 12 7 20 3 8 -3 15 0 15 7 0 7 7 10 16 6 9 -3 21 -3 27 1
7 4 2 10 -13 14 -22 6 -22 7 -4 8 15 1 26 12 36 39 14 37 14 37 20 10 3 -15 1
-25 -3 -22 -5 3 -9 -1 -9 -10 0 -8 -3 -21 -6 -30 -10 -27 28 -19 63 14 18 17
38 30 45 30 10 0 9 3 -2 10 -18 11 -16 13 36 33 23 9 45 13 49 9 5 -4 6 -2 2
4 -3 5 10 18 29 29 19 10 34 22 34 27 0 4 7 8 15 8 13 0 15 27 13 203 -2 127
-7 202 -13 201 -5 -1 -26 -4 -45 -7 -40 -7 -14 8 33 17 l27 6 0 149 0 148 -56
51 c-56 51 -62 72 -21 72 20 -1 21 -2 5 -14 -16 -12 -14 -16 20 -49 21 -20 41
-37 44 -37 12 0 9 488 -2 495 -5 3 -10 2 -10 -2 0 -5 -20 -30 -45 -57 -25 -27
-52 -60 -61 -73 -8 -13 -21 -22 -27 -20 -7 2 -32 -7 -56 -20 -46 -24 -112 -30
-166 -14 -17 4 -61 4 -99 0 -56 -7 -75 -6 -93 6 -12 8 -42 15 -67 15 -25 0
-47 4 -51 9 -8 14 35 36 63 32 14 -2 22 3 22 13 0 9 -8 16 -20 16 -11 0 -20 5
-20 10 0 6 -9 10 -20 10 -27 0 -25 8 8 43 29 32 12 28 -27 -7 l-24 -21 6 33 7
32 -80 0 c-80 0 -110 -12 -110 -45 0 -17 -78 -55 -113 -55 -22 0 -29 6 -33 29
-4 16 -17 40 -30 52 -24 22 -25 23 -147 9 -181 -20 -493 -22 -511 -4 -11 10
-44 14 -130 14 -104 0 -116 -2 -116 -17 -2 -86 -12 -277 -26 -468 -4 -49 -7
-102 -8 -117 0 -16 -4 -28 -8 -28 -14 0 -9 -15 12 -38 12 -12 17 -22 13 -22
-4 0 -2 -5 3 -10 13 -13 -6 -100 -22 -100 -12 0 -25 73 -30 170 -1 30 -5 75
-8 98 -3 24 -1 94 4 155 5 62 12 172 16 245 l7 132 -54 -1 c-30 -1 -44 -4 -31
-6 16 -3 21 -10 18 -21 -2 -9 -7 -64 -11 -122 -3 -58 -8 -134 -10 -170 -18
-287 -18 -299 -1 -326 10 -14 15 -33 13 -42 -3 -12 -5 -10 -6 6 -1 14 -5 20
-12 17 -6 -4 -10 -26 -8 -49 3 -57 1 -68 -11 -61 -5 3 -10 1 -10 -6 0 -10 -3
-10 -12 -1 -13 13 -18 177 -7 217 4 11 4 14 2 7 -3 -9 -14 -11 -34 -7 -25 6
-28 4 -22 -12 6 -15 4 -16 -9 -5 -13 10 -17 10 -22 -4 -6 -14 -20 -16 -119
-10 -138 8 -381 -6 -402 -24 -12 -10 -16 -8 -24 13 -15 40 -26 317 -12 317 6
0 11 11 11 25 0 13 7 50 15 81 12 47 13 68 3 120 l-13 64 -212 0 -213 0 0
-449z m1555 407 c42 -1 49 -6 115 -74 38 -39 70 -76 70 -82 0 -21 72 -80 140
-116 46 -24 99 -43 148 -52 42 -7 101 -18 131 -24 68 -13 121 -13 121 0 0 6
13 4 30 -5 42 -22 57 -19 34 8 -45 50 -66 97 -43 97 6 0 9 -7 6 -15 -5 -12 5
-13 54 -10 54 3 59 2 54 -15 -8 -24 11 -35 21 -12 4 9 6 21 5 27 -1 5 7 1 19
-10 l22 -20 -24 -6 c-23 -7 -19 -10 16 -13 11 0 21 -8 23 -16 4 -13 3 -13 -6
0 -5 8 -13 11 -17 7 -4 -3 -1 -14 7 -24 9 -11 10 -14 2 -9 -7 4 -13 2 -13 -4
0 -6 -12 -23 -26 -37 l-27 -27 -24 29 c-32 36 -57 24 -61 -29 -3 -29 -7 -36
-20 -32 -9 3 -62 14 -117 25 -198 40 -348 109 -534 244 -29 22 -64 40 -77 40
-26 0 -53 30 -104 116 l-30 53 30 -7 c17 -4 51 -7 75 -7z m574 -31 c6 -8 8
-17 4 -20 -9 -10 -93 -9 -93 1 0 30 68 44 89 19z m925 -188 c7 -78 -1 -169
-16 -169 -5 0 -6 21 -3 48 l5 47 -23 -65 c-13 -36 -35 -90 -50 -120 -29 -60
-113 -191 -131 -202 -6 -4 -7 -8 -3 -8 5 0 2 -6 -5 -14 -31 -33 -46 -55 -41
-60 13 -13 -172 -216 -198 -216 -6 0 -20 -11 -31 -25 -10 -13 -22 -24 -26 -23
-4 1 -18 -4 -32 -12 -14 -7 -36 -15 -49 -16 -13 -2 -31 -9 -40 -17 -9 -8 -26
-18 -38 -21 -28 -9 -30 -27 -4 -43 25 -15 57 -83 53 -110 -3 -23 -127 -173
-142 -173 -5 0 -17 11 -25 24 -15 23 -15 27 1 51 9 14 20 22 23 17 3 -5 16
-14 29 -21 19 -10 23 -10 20 1 -1 7 16 33 40 58 23 25 42 50 42 55 -1 6 -19
-11 -41 -37 -23 -27 -50 -48 -60 -48 -21 0 -24 11 -8 27 8 8 2 17 -20 34 -17
12 -31 27 -31 32 0 12 -52 53 -62 50 -5 -2 -7 2 -5 8 2 11 -51 34 -96 42 -54
10 -87 20 -87 26 0 4 16 24 35 45 30 33 40 38 68 34 30 -5 36 0 92 69 63 79
122 164 225 328 34 55 83 128 109 162 25 35 69 102 97 150 65 114 92 133 188
132 118 -1 216 11 216 28 0 8 4 12 9 9 4 -3 11 -38 15 -77z m-1345 -53 c23
-15 40 -31 37 -33 -3 -3 6 -15 20 -25 14 -11 23 -22 20 -25 -14 -14 -138 79
-171 129 -35 52 -31 56 14 17 21 -19 57 -47 80 -63z m-459 -175 c0 -38 -6 -84
-15 -102 l-14 -34 -1 35 c0 65 13 170 21 170 5 0 9 -31 9 -69z m-129 -89 c-8
-13 -10 -7 -11 28 0 25 4 63 8 85 6 37 7 35 10 -28 2 -37 -2 -75 -7 -85z
m1923 70 c-3 -22 -17 -58 -31 -79 -23 -37 -24 -37 -17 -8 3 17 7 36 7 43 0 6
4 12 9 12 4 0 7 10 5 23 -1 13 3 21 11 20 6 -2 12 7 12 19 0 12 2 19 5 16 3
-3 3 -24 -1 -46z m-635 -27 c18 -17 5 -20 -33 -5 -14 5 -26 14 -26 19 0 14 41
4 59 -14z m41 15 c0 -5 -2 -10 -4 -10 -3 0 -8 5 -11 10 -3 6 -1 10 4 10 6 0
11 -4 11 -10z m-1758 -110 c11 0 16 -4 13 -10 -3 -5 10 -19 29 -31 24 -14 36
-28 36 -43 0 -12 7 -31 16 -42 15 -18 15 -18 10 0 -4 10 -1 26 6 35 12 15 11
15 -6 1 -18 -14 -18 -14 -6 7 8 11 20 19 27 16 7 -3 13 2 13 11 0 9 -4 16 -10
16 -5 0 -10 5 -10 11 0 13 88 3 107 -13 12 -10 11 -159 -2 -218 -3 -14 1 -42
10 -62 8 -20 12 -44 9 -52 -3 -8 0 -25 7 -38 15 -25 22 -71 11 -64 -4 2 -7 -6
-8 -17 -1 -23 -12 -101 -18 -127 -2 -8 -7 -34 -11 -57 -4 -24 -10 -43 -13 -43
-2 0 -23 16 -45 36 -22 20 -65 48 -96 63 -48 22 -68 26 -144 25 l-88 -2 17 22
c10 11 3 7 -14 -11 l-32 -32 -28 27 -28 27 25 47 c27 50 47 64 36 26 -5 -21
-5 -21 5 -5 21 33 30 79 19 98 -14 27 -78 25 -113 -2 -22 -18 -27 -18 -32 -5
-10 25 36 104 114 194 83 97 98 138 20 56 -30 -32 -54 -50 -58 -44 -4 6 -14
-6 -24 -27 -9 -21 -30 -60 -47 -88 l-30 -50 6 45 c10 64 45 137 94 194 41 48
43 54 30 106 -3 11 6 15 40 17 24 1 46 5 50 8 3 4 26 4 50 1 24 -3 52 -6 63
-6z m-271 -123 c-10 -9 -11 -8 -5 6 3 10 9 15 12 12 3 -3 0 -11 -7 -18z m2664
-107 c-28 -12 -37 -12 -30 0 3 6 16 10 28 9 21 0 21 -1 2 -9z m-1610 -20 c3
-5 18 -8 33 -6 15 2 21 1 15 -1 -7 -2 -13 -10 -13 -16 0 -12 49 -15 66 -4 6 3
57 6 115 7 171 2 201 1 194 -9 -3 -6 -51 -10 -106 -10 -103 -1 -132 -7 -108
-22 10 -6 11 -9 2 -9 -18 0 -55 -39 -48 -50 7 -12 -31 -12 -60 -1 -18 7 -17 9
10 19 17 6 25 11 18 11 -7 1 -10 8 -7 16 4 8 11 12 18 8 7 -4 8 -3 1 4 -13 14
-89 27 -81 15 3 -6 -2 -8 -14 -5 -11 3 -20 9 -20 14 0 16 -71 23 -81 8 -7 -11
-11 -12 -17 -1 -5 7 -19 14 -30 15 -26 2 -29 14 -4 20 33 9 111 7 117 -3z
m1533 3 c-10 -2 -26 -2 -35 0 -10 3 -2 5 17 5 19 0 27 -2 18 -5z m-803 -13
c14 -7 8 -8 -20 -3 -22 3 -42 7 -44 9 -9 8 45 2 64 -6z m-221 -16 c24 -9 19
-24 -8 -22 -15 1 -22 7 -19 15 6 15 6 15 27 7z m-1851 -11 c-7 -2 -21 -2 -30
0 -10 3 -4 5 12 5 17 0 24 -2 18 -5z m1803 -20 c-10 -10 -19 5 -10 18 6 11 8
11 12 0 2 -7 1 -15 -2 -18z m-536 1 c0 -2 -12 -4 -26 -4 -14 0 -23 4 -20 9 6
8 46 4 46 -5z m-1186 -3 c4 -5 -19 -11 -49 -13 -57 -3 -77 7 -27 15 50 8 71 7
76 -2z m1614 -9 c-11 -2 -18 -13 -18 -25 0 -18 -2 -19 -10 -7 -8 13 -13 13
-31 2 -11 -8 -18 -9 -14 -3 3 6 0 11 -7 12 -7 0 -3 4 10 10 13 5 21 12 18 17
-2 4 12 6 32 3 20 -3 29 -6 20 -9z m335 11 c-7 -2 -19 -2 -25 0 -7 3 -2 5 12
5 14 0 19 -2 13 -5z m757 -3 c-18 -12 -30 -13 -30 -2 0 4 10 9 22 9 18 2 20 0
8 -7z m-2627 -7 c-7 -2 -19 -2 -25 0 -7 3 -2 5 12 5 14 0 19 -2 13 -5z m1684
1 c-3 -3 -12 -4 -19 -1 -8 3 -5 6 6 6 11 1 17 -2 13 -5z m-1712 -20 c-32 -8
-105 -10 -105 -3 0 9 66 16 95 10 11 -3 15 -6 10 -7z m1848 9 c-7 -2 -19 -2
-25 0 -7 3 -2 5 12 5 14 0 19 -2 13 -5z m-723 -11 c0 -5 -13 -7 -30 -4 -16 2
-30 6 -30 8 0 2 14 4 30 4 17 0 30 -4 30 -8z m327 2 c-3 -3 -12 -4 -19 -1 -8
3 -5 6 6 6 11 1 17 -2 13 -5z m143 2 c0 -3 -4 -8 -10 -11 -5 -3 -10 -1 -10 4
0 6 5 11 10 11 6 0 10 -2 10 -4z m-1772 -13 c-10 -2 -26 -2 -35 0 -10 3 -2 5
17 5 19 0 27 -2 18 -5z m1429 1 c-3 -3 -12 -4 -19 -1 -8 3 -5 6 6 6 11 1 17
-2 13 -5z m430 0 c-3 -3 -12 -4 -19 -1 -8 3 -5 6 6 6 11 1 17 -2 13 -5z m-210
-10 c-3 -3 -12 -4 -19 -1 -8 3 -5 6 6 6 11 1 17 -2 13 -5z m-353 -26 c-3 -5
-12 -4 -20 3 -19 16 -18 18 6 12 11 -3 17 -9 14 -15z m1551 12 c3 -6 -1 -7 -9
-4 -18 7 -21 14 -7 14 6 0 13 -4 16 -10z m-1508 -6 c-3 -3 -12 -4 -19 -1 -8 3
-5 6 6 6 11 1 17 -2 13 -5z m250 0 c-3 -3 -12 -4 -19 -1 -8 3 -5 6 6 6 11 1
17 -2 13 -5z m71 -1 c-10 -2 -28 -2 -40 0 -13 2 -5 4 17 4 22 1 32 -1 23 -4z
m230 -20 c-21 -2 -55 -2 -75 0 -21 2 -4 4 37 4 41 0 58 -2 38 -4z m-1501 -14
c24 -24 -28 -116 -60 -103 -24 9 -21 27 8 54 16 15 23 30 19 42 -6 20 15 25
33 7z m946 4 c-7 -2 -19 -2 -25 0 -7 3 -2 5 12 5 14 0 19 -2 13 -5z m160 0
c-13 -2 -33 -2 -45 0 -13 2 -3 4 22 4 25 0 35 -2 23 -4z m224 0 c-8 -7 -119
-5 -126 3 -2 2 26 4 64 4 38 0 65 -3 62 -7z m121 -10 c-10 -2 -28 -2 -40 0
-13 2 -5 4 17 4 22 1 32 -1 23 -4z m1037 -3 c-3 -5 -12 -10 -18 -10 -7 0 -6 4
3 10 19 12 23 12 15 0z m-2533 -15 c0 -5 -5 -11 -11 -13 -6 -2 -11 4 -11 13 0
9 5 15 11 13 6 -2 11 -8 11 -13z m2701 -8 c4 3 4 -9 1 -28 -12 -65 -25 -108
-34 -114 -6 -3 -10 -10 -10 -15 0 -5 16 0 36 12 27 16 36 18 32 7 -2 -8 -19
-21 -37 -29 -17 -9 -29 -19 -25 -23 4 -4 -2 -7 -14 -7 -12 0 -26 -9 -32 -20
-6 -11 -17 -20 -25 -20 -7 0 -15 -5 -17 -12 -2 -6 -10 -8 -16 -4 -7 4 -10 16
-7 27 7 22 -7 25 -27 6 -7 -7 -21 -16 -31 -20 -11 -4 -21 -17 -24 -28 -6 -22
-27 -22 -87 0 -24 10 -28 16 -24 41 3 17 1 30 -4 30 -4 0 -8 8 -8 18 0 13 2
14 9 3 12 -19 22 -13 83 45 68 64 155 128 193 141 23 8 34 7 46 -3 9 -8 19
-11 22 -7z m-205 -5 c2 -7 -1 -12 -8 -12 -6 0 -9 4 -6 9 4 5 1 12 -4 14 -6 3
-5 4 2 3 6 -1 14 -8 16 -14z m242 -21 c0 -5 -7 -12 -16 -15 -14 -5 -15 -4 -4
9 14 17 20 19 20 6z m-286 -17 c5 -14 4 -15 -9 -4 -17 14 -19 20 -6 20 5 0 12
-7 15 -16z m-54 -25 c0 -6 -4 -7 -10 -4 -5 3 -10 1 -10 -6 0 -7 -3 -10 -6 -6
-10 10 5 39 16 32 5 -3 10 -11 10 -16z m350 -19 c0 -5 -2 -10 -4 -10 -3 0 -8
5 -11 10 -3 6 -1 10 4 10 6 0 11 -4 11 -10z m-389 -24 c5 3 9 0 9 -6 0 -15
-23 -7 -26 8 -1 7 0 8 3 2 2 -5 9 -8 14 -4z m59 -26 c0 -5 -5 -10 -11 -10 -5
0 -7 5 -4 10 3 6 8 10 11 10 2 0 4 -4 4 -10z m-697 -14 c42 -17 101 -84 88
-99 -5 -7 -11 -23 -13 -37 l-4 -25 -16 31 c-10 18 -40 57 -69 88 -53 58 -50
69 14 42z m463 -75 c-1 -16 -4 -27 -8 -25 -4 2 -14 -31 -24 -73 -9 -43 -19
-73 -21 -66 -7 19 40 193 52 193 1 0 2 -13 1 -29z m34 15 c0 -3 -4 -8 -10 -11
-5 -3 -10 -1 -10 4 0 6 5 11 10 11 6 0 10 -2 10 -4z m69 -22 c1 11 30 -25 31
-36 0 -5 -5 -8 -11 -8 -5 0 -7 5 -4 10 3 6 0 10 -8 10 -15 0 -28 21 -26 43 0
7 4 3 9 -8 5 -11 9 -16 9 -11z m-1118 -94 c24 -12 58 -33 75 -46 27 -20 37
-22 65 -13 43 12 86 3 99 -22 13 -23 4 -25 -16 -4 -16 16 -53 19 -92 9 -19 -5
-22 -12 -18 -30 4 -13 2 -24 -4 -24 -6 0 -6 -9 1 -27 7 -20 6 -34 -6 -60 -16
-33 -26 -37 -75 -34 -14 0 -37 1 -52 1 -37 0 -80 68 -80 128 0 12 -4 22 -9 22
-5 0 -9 5 -9 11 0 5 6 7 13 3 7 -5 6 0 -3 12 -34 44 -60 65 -71 58 -7 -4 -9
-3 -5 4 3 5 1 12 -6 14 -6 2 -9 11 -6 19 9 22 141 8 199 -21z m1143 5 c17 -39
17 -77 1 -72 -5 2 -10 18 -9 35 0 38 -8 40 -36 10 -11 -12 -20 -19 -20 -15 0
4 -9 3 -20 -3 -18 -10 -18 -8 -8 21 6 17 18 33 27 36 9 2 23 8 31 13 8 5 16 9
17 9 2 1 9 -15 17 -34z m42 20 c4 -8 10 -12 15 -9 5 3 9 -2 9 -10 0 -9 -3 -16
-8 -16 -16 0 -52 32 -47 41 9 14 25 11 31 -6z m-2262 -11 c21 -21 20 -34 -3
-34 -26 0 -44 23 -29 38 15 15 13 15 32 -4z m1586 -89 c17 -9 30 -18 30 -21 0
-2 -12 2 -27 9 -16 8 -35 17 -43 20 -10 4 -11 6 -2 6 7 1 26 -6 42 -14z m615
1 c18 -13 18 -14 -3 -25 -30 -16 -37 -14 -21 7 7 9 1 6 -14 -7 l-27 -24 0 27
c0 18 -4 25 -12 20 -7 -4 -8 -3 -4 4 10 16 58 15 81 -2z m-140 -16 c3 -5 -1
-10 -10 -10 -9 0 -13 5 -10 10 3 6 8 10 10 10 2 0 7 -4 10 -10z m-585 -12 c0
-10 2 -10 8 -1 5 9 17 5 40 -13 44 -35 40 -46 -17 -42 -37 2 -47 6 -43 17 4
10 1 13 -10 8 -17 -6 -33 18 -22 34 8 14 44 11 44 -3z m-116 -20 c-10 -13 -20
-25 -21 -27 -2 -2 -3 1 -3 7 0 11 27 42 37 42 3 0 -2 -10 -13 -22z m-40 -21
c-10 -26 -22 -20 -16 9 3 15 8 22 14 16 5 -5 6 -16 2 -25z m713 -44 c-2 -16
-4 -3 -4 27 0 30 2 43 4 28 2 -16 2 -40 0 -55z m-2399 60 c-15 -2 -42 -2 -60
0 -18 2 -6 4 27 4 33 0 48 -2 33 -4z m1627 -13 c-3 -5 -13 -6 -22 -3 -11 4
-14 3 -9 -5 4 -7 1 -12 -10 -12 -13 0 -14 3 -4 15 13 16 55 21 45 5z m150 -1
c11 -17 -1 -21 -15 -4 -8 9 -8 15 -2 15 6 0 14 -5 17 -11z m-133 -55 c-6 -35
-12 -29 -12 14 0 23 3 32 9 24 4 -7 6 -24 3 -38z m813 36 c3 -6 -1 -7 -9 -4
-18 7 -21 14 -7 14 6 0 13 -4 16 -10z m-325 -30 c0 -5 -5 -10 -11 -10 -5 0 -7
5 -4 10 3 6 8 10 11 10 2 0 4 -4 4 -10z m30 -62 c0 -38 -5 -34 -13 10 -4 21
-3 31 3 27 6 -3 10 -20 10 -37z m-820 22 c0 -6 -9 -23 -19 -38 -10 -15 -22
-39 -25 -54 -6 -26 -5 -27 26 -21 26 5 30 4 25 -10 -4 -12 -2 -14 10 -10 11 4
14 2 9 -5 -11 -19 5 -14 20 5 16 24 29 10 15 -16 -8 -13 -17 -18 -29 -14 -15
6 -15 4 2 -15 11 -13 14 -22 7 -22 -7 0 -1 -20 15 -51 14 -29 27 -60 29 -70 2
-10 23 -57 46 -104 23 -47 40 -88 36 -91 -21 -22 -130 44 -120 74 3 7 -3 12
-14 12 -11 0 -24 5 -31 12 -7 7 -12 9 -12 6 0 -4 -13 7 -30 24 -16 16 -30 34
-30 39 0 5 -5 9 -11 9 -5 0 -7 -4 -4 -10 3 -5 2 -10 -4 -10 -6 0 -15 9 -21 20
-6 11 -8 20 -4 20 4 0 0 8 -9 18 -25 28 -15 107 19 143 22 23 27 38 28 78 0
27 3 48 5 46 2 -2 10 3 18 11 8 8 19 12 24 9 5 -4 6 1 3 9 -4 11 0 16 10 16 9
0 16 -5 16 -10z m428 -1 c-2 -5 -29 -21 -60 -33 -47 -19 -61 -21 -74 -11 -9 6
-14 18 -11 26 4 11 6 10 6 -3 1 -14 7 -13 49 8 49 25 96 32 90 13z m-1064 -70
c-4 -35 -9 -58 -12 -51 -5 16 8 126 14 119 3 -3 2 -33 -2 -68z m1703 34 c-3
-10 -5 -4 -5 12 0 17 2 24 5 18 2 -7 2 -21 0 -30z m-270 -15 c-3 -7 -5 -2 -5
12 0 14 2 19 5 13 2 -7 2 -19 0 -25z m-289 -1 c23 -18 43 -65 31 -72 -6 -4
-11 -5 -12 -4 -20 39 -37 64 -43 64 -14 0 -29 -35 -18 -43 6 -4 19 -20 28 -37
10 -16 15 -22 12 -12 -3 9 -1 17 4 17 13 0 30 -35 30 -62 0 -13 6 -30 13 -37
10 -11 9 -14 -1 -18 -6 -3 -10 -9 -6 -14 3 -5 1 -9 -5 -9 -5 0 -15 -17 -21
-37 -7 -21 -24 -50 -38 -65 -28 -30 -54 -39 -31 -11 13 15 12 15 -11 3 -23
-12 -24 -12 -11 3 7 10 20 17 27 17 7 0 21 11 30 25 14 22 15 30 5 53 -9 18
-9 28 -2 30 6 2 11 10 11 17 0 7 4 15 10 17 5 2 1 14 -9 27 -11 14 -23 21 -30
16 -9 -5 -7 -11 6 -21 14 -11 15 -15 5 -22 -7 -5 -12 -13 -11 -18 1 -5 1 -17
0 -27 -1 -15 -4 -15 -22 -5 -28 17 -59 80 -54 109 3 13 -1 26 -7 30 -9 6 -8
18 2 48 13 40 14 41 33 24 15 -15 19 -15 17 -3 -5 34 0 40 28 34 15 -4 33 -11
40 -17z m-413 2 c12 -19 -5 -23 -22 -6 -16 16 -16 17 -1 17 9 0 20 -5 23 -11z
m1527 -7 c-7 -2 -12 -9 -12 -16 0 -7 -22 -22 -49 -34 -79 -36 -123 -83 -89
-94 8 -3 4 -9 -10 -17 -25 -13 -53 -4 -31 10 11 7 11 9 1 9 -7 0 -23 -9 -35
-20 -12 -12 -23 -16 -25 -10 -6 16 -24 12 -47 -10 -19 -18 -23 -18 -43 -4 -23
16 -30 44 -11 44 5 0 8 4 4 10 -3 5 8 16 25 25 16 8 30 13 30 10 0 -4 13 1 29
11 19 11 27 23 24 35 -3 10 -10 16 -16 12 -6 -3 -7 -1 -3 6 4 6 11 9 16 6 5
-3 14 3 20 12 8 15 9 12 4 -11 -6 -24 -4 -28 9 -23 8 3 21 -1 27 -9 16 -18 31
-18 24 -1 -10 27 46 51 75 33 11 -7 13 -5 8 7 -5 14 -2 16 20 11 20 -5 24 -4
18 6 -5 8 -4 11 3 6 6 -3 13 -2 17 4 4 6 11 7 18 3 8 -5 8 -8 -1 -11z m-95 2
c-3 -3 -12 -4 -19 -1 -8 3 -5 6 6 6 11 1 17 -2 13 -5z m-1255 -36 c-12 -13
-22 -17 -22 -11 0 15 31 46 38 38 3 -3 -4 -15 -16 -27z m88 28 c0 -2 -7 -7
-16 -10 -8 -3 -12 -2 -9 4 6 10 25 14 25 6z m724 -11 c-4 -8 -8 -15 -10 -15
-2 0 -4 7 -4 15 0 8 4 15 10 15 5 0 7 -7 4 -15z m-893 -37 c9 -17 8 -18 -9 -9
-11 6 -22 17 -25 25 -9 22 21 8 34 -16z m843 16 c19 -19 22 -49 4 -37 -22 13
-41 9 -115 -24 -91 -40 -113 -36 -113 21 l1 41 14 -27 c14 -25 17 -26 48 -16
17 6 37 15 43 19 11 9 82 37 96 38 4 1 14 -6 22 -15z m600 -9 c-4 -8 -8 -15
-10 -15 -2 0 -4 7 -4 15 0 8 4 15 10 15 5 0 7 -7 4 -15z m31 5 c3 -5 1 -10 -4
-10 -6 0 -11 5 -11 10 0 6 2 10 4 10 3 0 8 -4 11 -10z m-1075 -20 c6 -11 7
-20 3 -20 -5 0 -14 9 -21 20 -7 11 -8 20 -2 20 5 0 14 -9 20 -20z m-419 -9
l24 -19 -27 5 c-32 6 -60 33 -35 33 8 0 25 -9 38 -19z m189 4 c11 -7 20 -45
10 -45 -5 0 -11 8 -13 18 -3 12 -5 11 -6 -6 0 -13 6 -30 14 -38 20 -20 19 -38
-1 -30 -9 3 -20 6 -25 6 -5 0 -9 8 -9 19 0 10 -9 21 -21 24 -18 5 -19 9 -9 27
13 24 5 39 -11 23 -6 -6 -18 -9 -27 -5 -13 5 -12 7 4 13 18 8 78 4 94 -6z
m-592 -33 c-2 -9 -9 -23 -16 -31 -12 -13 -12 -26 4 -116 4 -21 2 -27 -5 -20
-19 18 -25 129 -10 163 14 31 32 34 27 4z m1791 2 c3 -4 -2 -4 -11 -1 -10 4
-18 2 -18 -4 0 -6 -4 -8 -9 -4 -5 3 -17 -2 -25 -11 -21 -20 -21 -6 0 17 15 16
49 18 63 3z m-924 -16 c7 -7 -2 -8 -30 -3 -22 3 -44 11 -50 17 -7 7 2 8 30 3
22 -3 45 -11 50 -17z m485 -21 c0 -5 -4 -5 -10 -2 -5 3 -10 14 -10 23 0 15 2
15 10 2 5 -8 10 -19 10 -23z m-840 -1 c-7 -7 -14 -6 -21 1 -9 9 -7 12 9 10 14
-1 18 -5 12 -11z m950 -16 c0 -5 -2 -10 -4 -10 -3 0 -8 5 -11 10 -3 6 -1 10 4
10 6 0 11 -4 11 -10z m-156 -140 c15 -41 38 -97 51 -125 13 -27 27 -62 31 -78
7 -31 -11 -61 -33 -53 -8 3 -11 1 -8 -4 4 -6 -8 -10 -28 -10 -29 0 -40 7 -69
43 -67 84 -108 148 -102 159 4 6 3 8 -4 4 -13 -8 -67 71 -67 97 0 10 14 26 30
35 17 9 33 21 37 27 4 5 11 -2 17 -15 l10 -25 0 29 c1 21 5 27 17 22 8 -3 12
-2 9 4 -3 6 5 10 19 10 14 0 26 6 26 12 0 20 35 -51 64 -132z m600 134 c23 -9
20 -23 -4 -17 -12 3 -20 0 -20 -6 0 -7 -4 -9 -10 -6 -5 3 -10 11 -10 16 0 6 5
7 10 4 6 -3 10 -1 10 4 0 13 3 13 24 5z m-1334 -29 c13 -14 29 -25 36 -25 8 0
11 -6 7 -16 -5 -13 -8 -13 -15 -2 -6 9 -7 3 -3 -17 4 -16 3 -27 -1 -22 -4 4
-21 -5 -38 -20 -27 -24 -28 -25 -9 -3 36 42 39 74 8 104 -14 14 -22 26 -17 26
5 0 19 -11 32 -25z m250 17 c0 -4 9 -8 20 -9 11 -1 18 2 15 8 -4 5 -2 9 3 9 6
0 13 -7 16 -16 3 -8 2 -12 -4 -9 -18 11 -10 -10 10 -28 18 -15 25 -36 21 -59
0 -5 4 -8 10 -8 6 0 9 -10 7 -22 -2 -13 -7 -21 -13 -18 -5 3 -9 9 -7 13 1 5
-2 6 -7 3 -5 -4 -22 4 -38 17 -15 13 -37 29 -48 35 -11 6 -14 12 -7 12 10 0
12 10 7 40 -4 26 -3 40 4 40 6 0 11 -4 11 -8z m236 -7 c-11 -8 -22 -12 -25 -9
-6 6 19 24 34 24 6 -1 1 -7 -9 -15z m251 -2 c3 -10 15 -28 26 -40 11 -12 17
-29 14 -37 -4 -10 -1 -16 6 -16 7 0 32 -43 56 -95 38 -87 41 -97 26 -111 -19
-19 -18 -20 -39 30 -19 46 -19 49 -4 40 8 -5 9 0 5 17 -4 13 -7 27 -7 31 0 4
-6 6 -12 4 -7 -1 -10 -1 -5 1 13 8 7 23 -7 17 -9 -3 -19 10 -31 38 -48 121
-54 138 -45 138 6 0 13 -8 17 -17z m338 -3 c3 -5 1 -10 -4 -10 -6 0 -11 5 -11
10 0 6 2 10 4 10 3 0 8 -4 11 -10z m-1297 -36 c2 -24 1 -26 -8 -11 -6 9 -9 21
-5 26 3 5 0 12 -5 14 -6 3 -5 4 2 3 7 -1 14 -16 16 -32z m282 26 c0 -5 -5 -10
-11 -10 -5 0 -7 5 -4 10 3 6 8 10 11 10 2 0 4 -4 4 -10z m830 5 c0 -2 -10 -9
-22 -15 -22 -11 -22 -10 -4 4 21 17 26 19 26 11z m-1802 -27 c18 -18 15 -28
-8 -28 -11 0 -20 -4 -20 -9 0 -5 -9 -11 -20 -14 -23 -6 -26 3 -8 21 9 9 9 12
1 12 -7 0 -21 -13 -33 -30 -12 -16 -29 -30 -39 -30 -9 0 -21 -4 -26 -9 -6 -5
-19 -11 -30 -14 -46 -11 151 -5 290 8 196 19 271 19 278 1 5 -12 -13 -14 -106
-13 -96 1 -176 -4 -237 -16 -8 -1 -21 -7 -29 -11 -10 -6 -12 -5 -7 2 5 8 2 10
-8 6 -9 -3 -13 -11 -9 -18 3 -6 3 -8 -1 -4 -4 3 -38 -2 -74 -12 -37 -10 -86
-21 -108 -25 -34 -5 -41 -10 -37 -25 5 -20 -30 -46 -47 -35 -6 3 -10 2 -10 -3
0 -10 -30 -25 -36 -19 -10 9 20 67 36 72 11 3 17 11 15 18 -5 15 13 39 40 55
19 11 19 11 1 12 -15 0 -16 3 -6 15 15 18 35 20 24 3 -4 -7 -3 -8 5 -4 6 4 9
11 6 16 -4 7 73 63 115 82 25 11 75 9 88 -4z m1393 -15 c-12 -20 -14 -14 -5
12 4 9 9 14 11 11 3 -2 0 -13 -6 -23z m809 -7 c-4 -4 -16 -4 -26 2 -16 9 -14
10 8 9 15 -1 23 -6 18 -11z m-1180 -11 c10 -12 10 -15 -4 -15 -9 0 -16 7 -16
15 0 8 2 15 4 15 2 0 9 -7 16 -15z m-150 -26 c0 -11 -4 -17 -10 -14 -5 3 -10
13 -10 21 0 8 5 14 10 14 6 0 10 -9 10 -21z m925 -10 c11 -17 -1 -21 -15 -4
-8 9 -8 15 -2 15 6 0 14 -5 17 -11z m326 -12 c-10 -9 -11 -8 -5 6 3 10 9 15
12 12 3 -3 0 -11 -7 -18z m-91 -18 c0 -4 -9 -5 -20 -2 -11 3 -20 12 -20 19 0
12 4 12 20 2 11 -7 20 -16 20 -19z m40 17 c0 -2 -7 -7 -16 -10 -8 -3 -12 -2
-9 4 6 10 25 14 25 6z m-2915 -26 c13 -5 14 -9 5 -9 -8 0 -24 4 -35 9 -13 5
-14 9 -5 9 8 0 24 -4 35 -9z m2912 -10 c-3 -10 0 -21 6 -23 6 -2 2 -7 -8 -11
-11 -4 -16 -4 -12 0 4 4 1 14 -6 22 -9 13 -9 14 1 8 7 -4 12 -1 12 8 0 9 3 16
6 16 4 0 4 -9 1 -20z m68 0 c3 -5 -1 -10 -9 -10 -8 0 -18 5 -21 10 -3 6 1 10
9 10 8 0 18 -4 21 -10z m-1180 -10 c3 -5 2 -10 -4 -10 -5 0 -13 5 -16 10 -3 6
-2 10 4 10 5 0 13 -4 16 -10z m972 4 c-3 -3 -12 -4 -19 -1 -8 3 -5 6 6 6 11 1
17 -2 13 -5z m63 -13 c0 -5 -10 -11 -22 -14 -22 -6 -22 -6 -4 8 23 17 26 18
26 6z m-2704 -10 c-4 -5 0 -11 6 -14 9 -3 8 -7 -4 -12 -11 -4 -24 -1 -33 8
-13 14 -13 16 3 20 29 8 33 7 28 -2z m659 -31 c-3 -5 -14 -10 -23 -10 -15 0
-15 2 -2 10 20 13 33 13 25 0z m1126 -7 c13 -16 12 -17 -3 -4 -10 7 -18 15
-18 17 0 8 8 3 21 -13z m293 -44 c-9 -15 -24 10 -17 29 5 12 7 12 15 -2 5 -9
6 -21 2 -27z m-1434 21 c0 -5 -5 -10 -11 -10 -5 0 -7 5 -4 10 3 6 8 10 11 10
2 0 4 -4 4 -10z m1120 6 c0 -3 -4 -8 -10 -11 -5 -3 -10 -1 -10 4 0 6 5 11 10
11 6 0 10 -2 10 -4z m350 -57 c11 -8 12 -12 3 -16 -10 -3 -10 -10 -2 -24 11
-22 34 -15 25 8 -3 8 -2 12 3 9 5 -3 11 -14 14 -25 3 -14 -2 -21 -20 -26 -32
-8 -37 -2 -37 40 0 23 -5 36 -15 38 -14 4 -14 5 -1 6 8 0 22 -4 30 -10z m88
-54 c-3 -3 -9 2 -12 12 -6 14 -5 15 5 6 7 -7 10 -15 7 -18z m-1400 -63 c2 -7
0 -12 -5 -10 -12 3 -137 -10 -312 -33 -85 -11 -162 -18 -171 -16 -14 3 -15 -7
-8 -87 3 -50 9 -127 12 -171 3 -44 8 -96 10 -115 2 -19 7 -96 11 -170 4 -74
10 -138 14 -142 3 -4 35 -3 71 2 l65 9 -61 -3 -62 -2 -6 80 c-3 45 -9 190 -12
323 l-7 242 24 5 c13 3 123 15 245 27 l221 22 42 -28 c23 -15 39 -30 37 -32
-3 -3 -20 7 -39 21 -19 14 -39 26 -45 26 -16 0 -8 -27 15 -54 18 -20 21 -36
20 -93 0 -37 -7 -79 -14 -93 -7 -14 -13 -35 -13 -48 0 -12 -10 -42 -21 -64
-17 -34 -19 -43 -8 -47 8 -2 37 -27 66 -55 58 -58 74 -99 44 -115 -36 -20
-184 -39 -233 -32 -39 6 -46 5 -37 -6 6 -7 8 -13 3 -14 -5 0 5 -7 21 -14 33
-15 25 -21 -35 -28 -19 -3 6 -3 55 -1 108 5 347 33 357 43 3 3 1 120 -5 259
-7 138 -9 252 -6 252 4 0 10 -66 13 -147 3 -82 10 -193 15 -248 6 -82 8 -89 9
-41 1 35 6 56 11 50 11 -12 25 -174 15 -174 -10 0 -344 -37 -506 -55 -70 -8
-144 -14 -165 -14 -21 1 23 9 97 19 74 10 122 18 105 19 -16 1 -93 -7 -170
-16 -107 -13 -132 -19 -105 -24 l35 -6 -37 -2 -37 -1 -5 53 c-11 102 -23 702
-15 713 5 6 51 14 101 18 51 4 140 13 198 21 128 16 202 15 208 -3z m482 -12
c8 -5 11 -10 5 -10 -5 0 -17 5 -25 10 -8 5 -10 10 -5 10 6 0 17 -5 25 -10z
m70 -20 l25 -8 -25 -1 c-14 0 -32 4 -40 9 -13 9 -13 10 0 9 8 -1 26 -5 40 -9z
m954 -31 c-20 -23 -36 -25 -28 -4 4 8 10 13 14 10 4 -3 11 5 15 18 4 14 8 17
12 9 3 -7 -3 -22 -13 -33z m-771 24 c-7 -2 -19 -2 -25 0 -7 3 -2 5 12 5 14 0
19 -2 13 -5z m-70 -10 c-13 -2 -33 -2 -45 0 -13 2 -3 4 22 4 25 0 35 -2 23 -4z
m417 -3 c0 -5 -5 -10 -11 -10 -5 0 -7 5 -4 10 3 6 8 10 11 10 2 0 4 -4 4 -10z
m256 -27 c-3 -8 -6 -20 -6 -25 0 -22 -14 3 -15 26 0 16 4 22 13 19 7 -3 11
-12 8 -20z m121 5 c0 -13 -1 -17 -4 -10 -4 10 -8 10 -21 0 -12 -9 -11 -6 2 10
11 12 20 22 20 22 1 0 2 -10 3 -22z m-628 -1 c-15 -10 -112 -48 -149 -58 -25
-7 -49 -16 -55 -20 -16 -11 -131 -21 -156 -14 -17 6 -19 9 -8 16 10 6 6 9 -13
9 -16 0 -28 5 -28 10 0 11 1 11 150 15 82 2 121 8 180 28 41 14 77 24 79 21 2
-2 2 -5 0 -7z m-162 -3 c-3 -3 -12 -4 -19 -1 -8 3 -5 6 6 6 11 1 17 -2 13 -5z
m633 -34 c0 -5 -4 -10 -10 -10 -5 0 -10 5 -10 10 0 6 5 10 10 10 6 0 10 -4 10
-10z m-1110 -100 c0 -38 -4 -72 -10 -75 -16 -10 -12 -35 5 -29 8 4 15 2 15 -4
0 -5 -7 -13 -16 -16 -10 -4 -14 -14 -11 -26 3 -11 1 -20 -4 -20 -5 0 -9 -15
-9 -34 0 -18 -7 -51 -16 -72 -15 -35 -17 -36 -27 -19 -6 11 -12 58 -13 105 -1
47 -4 97 -6 112 -3 15 1 39 8 54 8 14 13 28 12 32 0 4 3 26 7 49 l7 42 29 -15
c28 -14 29 -18 29 -84z m1784 75 c-7 -16 -24 -21 -24 -6 0 8 7 13 27 20 1 1 0
-6 -3 -14z m-639 -22 c-2 -10 -4 -20 -4 -23 -1 -3 -5 2 -10 10 -10 15 -6 30 9
30 4 0 7 -8 5 -17z m595 -2 c0 -10 -24 -21 -43 -21 -7 0 -3 7 7 15 22 17 36
19 36 6z m-1663 -33 c-3 -8 -6 -5 -6 6 -1 11 2 17 5 13 3 -3 4 -12 1 -19z
m1709 -14 c-4 -9 -9 -14 -12 -11 -3 3 -16 2 -29 -3 -17 -6 -27 -5 -35 6 -9 10
-9 14 -1 14 6 0 11 -6 11 -12 1 -8 6 -6 14 5 15 20 32 22 39 5 3 -7 6 -4 6 6
1 11 4 17 7 13 4 -3 4 -14 0 -23z m-17 -53 c-15 -5 -22 6 -14 19 6 9 10 9 16
-1 5 -8 4 -15 -2 -18z m-840 6 c-2 -2 -17 -11 -34 -21 l-30 -17 24 20 c13 12
28 21 34 21 6 0 8 -1 6 -3z m-842 -149 c-2 -29 -3 -8 -3 47 0 55 1 79 3 53 2
-26 2 -71 0 -100z m1703 122 c0 -5 -2 -10 -4 -10 -3 0 -8 5 -11 10 -3 6 -1 10
4 10 6 0 11 -4 11 -10z m116 1 c-8 -12 -46 -21 -46 -11 0 9 18 18 38 19 7 1
11 -3 8 -8z m-829 -19 c-10 -10 -17 -23 -17 -29 0 -6 -13 -40 -30 -75 -16 -34
-30 -55 -30 -45 0 9 4 25 9 35 6 9 21 43 35 75 14 31 30 57 37 57 8 0 6 -6 -4
-18z m633 -4 c0 -3 -6 -9 -12 -11 -7 -3 8 -6 33 -6 35 -1 51 -7 69 -26 19 -21
30 -24 53 -19 20 4 27 3 23 -5 -4 -6 -14 -11 -22 -11 -8 0 -14 -5 -14 -11 0
-12 -29 -38 -42 -39 -5 0 -8 8 -8 18 0 9 -4 23 -9 31 -8 12 -12 12 -25 2 -9
-8 -16 -9 -16 -3 0 20 -60 36 -91 25 -34 -13 -45 -2 -28 28 8 16 13 18 19 9 5
-7 15 -10 25 -6 13 5 15 9 6 20 -10 11 -7 14 14 12 14 0 25 -4 25 -8z m166
-31 c4 -4 -2 -7 -14 -7 -11 0 -24 5 -27 10 -7 11 30 8 41 -3z m-416 -11 c0 -3
-4 -8 -10 -11 -5 -3 -10 -1 -10 4 0 6 5 11 10 11 6 0 10 -2 10 -4z m508 -24
c6 -18 -15 -14 -22 4 -4 10 -1 14 6 12 6 -2 14 -10 16 -16z m-1944 -117 c3
-52 9 -115 13 -140 l6 -45 -46 0 -46 0 6 58 c3 31 10 65 14 74 5 9 9 30 9 47
0 16 5 33 10 36 6 3 10 19 10 36 0 16 4 29 9 29 4 0 11 -43 15 -95z m1094 53
c7 -10 33 -30 58 -44 25 -15 43 -28 40 -31 -11 -11 -136 80 -136 99 0 12 22
-2 38 -24z m642 12 c0 -5 -2 -10 -4 -10 -3 0 -8 5 -11 10 -3 6 -1 10 4 10 6 0
11 -4 11 -10z m-457 -103 c2 -32 0 -52 -4 -45 -5 7 -8 38 -8 68 1 66 6 56 12
-23z m601 36 c-5 -5 -12 -12 -16 -18 -4 -6 -8 -2 -8 8 0 9 7 17 17 17 9 0 12
-3 7 -7z m-380 -35 c-4 -7 -3 -8 5 -4 6 4 19 2 27 -5 12 -10 13 -9 7 7 -6 16
-5 17 9 6 9 -7 19 -24 22 -38 5 -19 11 -23 29 -19 46 11 183 20 217 14 l35 -6
-37 -2 c-21 0 -37 -4 -35 -8 2 -9 -1 -11 -44 -23 -26 -8 -35 -6 -45 8 -13 16
-13 16 -14 -1 0 -9 11 -23 26 -29 20 -10 30 -9 54 5 47 28 59 23 72 -28 2 -6
-16 -8 -42 -6 -25 2 -57 5 -72 6 -16 1 -28 -2 -28 -7 0 -7 30 -12 52 -10 3 1
8 -5 11 -12 10 -26 -25 -27 -57 -3 -17 13 -40 23 -51 21 -24 -4 -45 13 -45 35
0 14 2 14 11 1 9 -13 10 -13 6 0 -6 23 -50 23 -90 1 -24 -14 -34 -16 -31 -7 3
8 -8 23 -25 36 -30 21 -41 49 -21 51 6 1 14 2 19 3 5 0 13 5 18 10 5 5 2 6 -6
1 -9 -5 -12 -4 -7 3 4 7 14 12 22 12 9 0 12 -5 8 -12z m-774 -54 c0 -8 -4 -12
-10 -9 -5 3 -10 10 -10 16 0 5 5 9 10 9 6 0 10 -7 10 -16z m244 -29 c5 -29 4
-36 -3 -25 -6 8 -11 28 -11 44 0 39 6 31 14 -19z m966 15 c0 -11 -5 -20 -11
-20 -6 0 -9 6 -6 14 3 8 1 17 -6 20 -7 2 -4 5 6 5 11 1 17 -6 17 -19z m-795
-23 c15 -3 13 -5 -7 -6 -16 0 -28 1 -28 3 0 2 -3 13 -6 23 -5 16 -4 17 8 2 7
-9 22 -19 33 -22z m148 3 c3 -11 1 -23 -4 -26 -5 -3 -9 6 -9 20 0 31 6 34 13
6z m-573 -24 c0 -2 -7 -6 -15 -10 -8 -3 -15 -1 -15 4 0 6 7 10 15 10 8 0 15
-2 15 -4z m856 -4 c6 -4 13 -15 17 -24 5 -15 1 -18 -28 -18 -39 0 -45 -12 -15
-33 11 -8 17 -16 14 -20 -3 -3 -13 1 -22 9 -10 7 -26 20 -37 28 -25 18 -15 29
25 28 33 -1 50 16 29 29 -8 5 -9 9 -4 9 6 0 15 -4 21 -8z m-1700 -22 c30 0 12
-19 -23 -24 -106 -15 -133 -16 -133 -9 0 11 110 42 128 37 8 -2 20 -4 28 -4z
m1432 -50 c0 -9 -3 -7 -8 5 -5 11 -8 29 -8 40 0 16 2 15 8 -5 4 -14 8 -32 8
-40z m302 10 c8 -5 11 -10 6 -10 -5 0 -3 -7 4 -15 11 -13 10 -14 -5 -9 -14 6
-16 4 -10 -6 5 -8 4 -11 -2 -7 -12 7 -24 57 -14 57 3 0 13 -5 21 -10z m-205
-28 c-3 -3 -11 0 -18 7 -9 10 -8 11 6 5 10 -3 15 -9 12 -12z m12 -197 c32 -47
32 -48 4 -16 -32 36 -94 149 -105 191 -4 14 9 -9 30 -50 20 -41 52 -97 71
-125z m-43 159 c5 -14 4 -15 -9 -4 -17 14 -19 20 -6 20 5 0 12 -7 15 -16z
m106 -14 c0 -5 -2 -10 -4 -10 -3 0 -8 5 -11 10 -3 6 -1 10 4 10 6 0 11 -4 11
-10z m100 -90 c0 -5 -5 -10 -11 -10 -5 0 -7 5 -4 10 3 6 8 10 11 10 2 0 4 -4
4 -10z m30 -10 c0 -5 -2 -10 -4 -10 -3 0 -8 5 -11 10 -3 6 -1 10 4 10 6 0 11
-4 11 -10z m-75 -31 c11 -17 -1 -21 -15 -4 -8 9 -8 15 -2 15 6 0 14 -5 17 -11z
m-473 -54 c6 -19 16 -31 21 -28 6 3 7 1 3 -6 -4 -6 0 -18 8 -27 15 -14 16 -14
16 2 0 13 3 14 13 5 16 -12 30 -4 20 12 -3 6 -7 23 -7 39 -1 25 0 26 12 11 6
-9 12 -24 12 -32 0 -9 5 -23 11 -31 9 -13 10 -13 8 0 -1 8 1 23 6 33 7 17 8
17 20 0 14 -21 26 -53 20 -53 -2 0 -11 12 -20 28 l-16 27 6 -30 c6 -37 -40
-99 -56 -74 -5 9 -6 0 -2 -23 3 -25 2 -38 -5 -38 -15 0 -32 33 -33 62 0 22 -1
22 -9 3 -8 -19 -8 -19 -18 5 -6 17 -6 29 0 38 7 8 7 12 -1 12 -7 0 -10 4 -7 9
3 5 -1 11 -8 14 -8 3 -17 1 -20 -6 -3 -9 -5 -9 -5 0 -1 6 3 14 8 17 10 7 2 56
-10 56 -5 0 -9 4 -9 10 0 21 30 -4 42 -35z m128 10 c0 -5 -5 -3 -10 5 -5 8
-10 20 -10 25 0 6 5 3 10 -5 5 -8 10 -19 10 -25z m340 5 c0 -6 10 -15 23 -20
15 -6 17 -9 5 -9 -9 -1 -19 -7 -22 -13 -3 -7 -4 -4 -3 7 1 13 -4 20 -15 19
-10 -1 -14 4 -11 12 6 16 23 19 23 4z m-356 -16 c3 -8 2 -12 -4 -9 -6 3 -10
10 -10 16 0 14 7 11 14 -7z m660 3 c21 -15 13 -44 -15 -52 -10 -4 -19 -11 -19
-16 0 -15 19 -10 40 11 18 18 24 18 21 -3 -1 -4 7 -3 18 2 19 10 19 10 4 -19
-16 -33 -33 -39 -34 -12 0 13 -3 12 -12 -6 -8 -18 -8 -25 2 -32 20 -12 -19
-31 -40 -20 -12 7 -16 23 -15 65 1 55 1 56 -16 34 -10 -11 -18 -17 -18 -12 0
20 38 45 58 38 11 -3 23 -1 27 4 4 7 -1 8 -11 4 -11 -4 -15 -3 -11 4 4 6 1 14
-5 16 -7 3 -8 6 -2 6 5 1 18 -5 28 -12z m-221 -40 c-5 -11 -7 -11 -28 1 -19
11 -18 12 5 8 14 -1 24 -6 23 -9z m137 9 c0 -3 -4 -8 -10 -11 -5 -3 -10 -1
-10 4 0 6 5 11 10 11 6 0 10 -2 10 -4z m-1667 -43 c15 -8 75 -52 133 -98 102
-82 130 -101 104 -70 -20 24 -5 18 16 -7 10 -12 13 -18 7 -14 -7 4 -13 4 -12
-1 0 -4 45 -44 100 -88 56 -44 118 -93 138 -110 20 -16 52 -41 70 -55 18 -14
65 -51 104 -82 40 -32 79 -58 89 -58 15 0 47 -33 75 -76 11 -18 12 -18 12 -1
1 10 6 15 11 12 8 -5 13 22 9 52 0 3 6 10 15 15 9 5 16 14 16 19 0 6 11 27 25
47 14 20 25 41 25 47 0 5 -16 -16 -36 -48 -19 -31 -38 -57 -40 -57 -8 0 54
116 69 128 16 13 16 10 3 -238 -4 -73 -3 -90 6 -73 l11 22 38 -31 c21 -17 36
-34 34 -39 -6 -9 70 -71 78 -62 9 8 38 -17 32 -27 -3 -5 0 -12 6 -16 8 -5 9
-3 4 6 -5 8 -3 11 6 8 17 -6 17 -25 -1 -103 -8 -34 -14 -117 -14 -192 0 -72
-4 -129 -8 -127 -14 9 -8 -13 7 -26 14 -11 14 -15 0 -36 -14 -22 -13 -24 28
-52 23 -16 84 -55 135 -86 51 -32 90 -61 87 -66 -3 -5 0 -12 6 -16 8 -4 9 -3
5 4 -4 7 -2 12 3 12 6 0 11 -5 11 -11 0 -5 4 -8 9 -4 5 3 12 1 16 -4 3 -5 -3
-15 -12 -21 -16 -10 -16 -11 -1 -6 10 3 21 -2 27 -12 5 -9 12 -14 16 -10 4 3
15 -1 25 -10 16 -13 17 -19 7 -30 -10 -12 -8 -14 9 -8 15 4 24 2 28 -9 4 -10
1 -15 -9 -13 -23 5 -19 -16 6 -29 13 -7 18 -13 12 -13 -7 0 -13 -5 -13 -11 0
-6 9 -8 23 -4 21 6 21 6 3 -9 -20 -16 -20 -16 0 -16 15 0 16 -2 5 -9 -11 -7
-9 -10 8 -16 22 -7 22 -7 4 -28 -10 -12 -14 -19 -9 -15 13 11 36 -11 36 -34 0
-12 4 -16 11 -12 9 5 10 -1 5 -20 -5 -22 -3 -26 13 -26 15 0 19 -5 14 -17 -4
-10 -12 -21 -19 -26 -7 -4 -11 -14 -8 -22 4 -10 0 -15 -11 -15 -9 0 -14 -4
-11 -9 3 -5 -2 -11 -12 -13 -11 -3 -19 0 -19 8 0 8 4 14 9 14 4 0 8 10 8 23 0
21 -1 20 -24 -8 -14 -17 -28 -26 -33 -21 -4 5 -2 11 4 13 10 4 9 11 -2 33 -8
15 -11 31 -7 34 3 4 -6 2 -21 -3 -18 -7 -26 -7 -22 -1 3 6 0 10 -8 10 -8 0
-18 7 -21 16 -3 8 -10 13 -15 10 -5 -3 -12 1 -15 10 -3 8 -10 13 -15 10 -5 -3
-14 1 -21 9 -7 8 -19 15 -26 15 -8 0 -14 7 -14 15 0 8 -7 15 -15 15 -9 0 -18
7 -21 15 -4 9 -14 14 -23 13 -10 -2 -17 5 -19 21 -3 19 -6 21 -13 10 -7 -11
-10 -10 -15 7 -4 14 -25 29 -60 43 -30 13 -54 26 -54 30 0 4 -16 13 -35 21
-19 8 -35 17 -35 22 0 4 -7 8 -15 8 -9 0 -24 13 -33 30 -14 25 -28 31 -91 46
-70 15 -159 55 -207 93 -17 14 -20 21 -12 35 12 21 -4 36 -39 36 -23 0 -48 32
-35 45 4 5 1 5 -5 1 -8 -4 -29 9 -54 33 -22 23 -45 41 -50 41 -5 0 -11 11 -15
25 -4 16 -13 25 -25 25 -10 0 -19 5 -19 10 0 6 -7 10 -15 10 -21 0 -37 34 -23
48 9 9 9 12 1 12 -6 0 -13 -6 -16 -12 -3 -10 -9 -8 -23 4 -14 14 -15 21 -6 30
8 8 15 8 26 -2 19 -15 48 -6 40 13 -2 7 -21 19 -41 26 -31 12 -37 11 -45 -3
-5 -9 -14 -16 -20 -16 -23 0 -108 66 -123 95 -17 33 -31 56 -59 98 -10 16 -18
40 -18 53 0 15 -9 29 -22 36 -19 10 -20 10 -7 -6 12 -14 11 -16 -5 -13 -18 2
-63 29 -155 91 -43 29 -91 84 -84 96 3 5 1 12 -5 15 -6 4 -8 14 -6 23 5 14 -2
17 -32 19 -31 2 -33 0 -14 -7 26 -11 29 -22 5 -18 -10 2 -18 -3 -18 -12 0 -9
-10 -16 -25 -17 -14 -1 -18 0 -7 3 22 7 22 21 -3 66 -15 29 -16 36 -5 32 8 -4
15 -10 15 -15 0 -5 12 -4 26 1 33 13 67 13 59 0 -4 -6 4 -9 17 -7 13 1 22 -3
21 -10 -2 -6 23 -26 54 -44 146 -84 238 -157 326 -259 48 -56 63 -59 27 -5
-14 22 -16 32 -8 42 8 10 7 12 -4 8 -10 -4 -26 5 -41 22 -71 79 -191 173 -253
199 -39 17 -96 63 -89 74 3 4 -2 13 -10 20 -12 10 -15 10 -15 -1 0 -9 -3 -10
-8 -3 -6 10 -34 19 -129 44 -36 9 -106 -3 -111 -19 -2 -5 -10 -7 -18 -4 -7 3
-11 10 -8 15 4 6 1 9 -6 6 -23 -7 -21 -22 4 -34 18 -8 30 -8 50 3 26 14 27 13
17 -5 -6 -11 -16 -23 -23 -25 -7 -3 6 -6 28 -6 41 -1 66 -22 42 -37 -7 -4 -5
-10 6 -16 9 -5 13 -14 10 -20 -4 -7 -2 -8 4 -4 6 4 9 13 5 21 -3 8 -1 15 5 15
5 0 12 -6 15 -13 6 -15 -29 -41 -43 -32 -6 4 -10 -1 -10 -10 0 -12 -4 -13 -18
-6 -11 6 -24 6 -32 1 -12 -7 -11 -10 3 -16 16 -6 15 -9 -7 -39 -24 -31 -24
-33 -5 -28 11 3 23 12 26 19 3 8 9 11 14 8 6 -3 16 -1 23 5 17 15 46 4 39 -15
-3 -7 1 -16 9 -19 21 -8 19 -44 -4 -67 -16 -16 -20 -17 -15 -5 7 18 -17 25
-28 7 -8 -13 -35 -1 -35 16 0 20 -14 17 -35 -6 -10 -12 -25 -18 -32 -16 -7 3
-12 2 -12 -2 8 -48 -43 -36 -53 14 -2 12 -11 18 -23 17 -19 -1 -19 -1 -2 11 9
7 17 18 17 24 0 6 10 16 21 23 18 9 19 13 8 20 -12 8 -11 9 1 8 18 -3 70 21
70 32 0 16 -20 19 -39 8 -15 -10 -22 -10 -34 3 -18 17 -13 29 9 21 8 -3 14 0
14 6 0 6 -4 11 -10 11 -5 0 -10 4 -10 10 0 6 9 6 26 -1 33 -12 44 -3 18 15
-12 9 -24 11 -34 5 -29 -17 -60 -47 -60 -59 0 -27 -42 -67 -92 -89 -29 -12
-75 -33 -103 -47 -53 -25 -122 -37 -127 -23 -4 13 -67 -33 -74 -53 -3 -10 -11
-18 -18 -18 -8 0 -19 -7 -26 -15 -7 -8 -20 -15 -29 -15 -9 0 -21 -13 -27 -28
-9 -23 -19 -30 -50 -35 -21 -4 -51 -9 -66 -13 -20 -5 -29 -1 -38 16 -14 27 -4
100 15 100 16 0 37 25 28 33 -3 4 -13 1 -22 -7 -9 -7 -26 -16 -38 -19 -19 -4
-23 -1 -23 18 0 12 7 28 15 35 8 7 17 28 21 47 5 25 15 40 37 52 16 9 43 27
59 40 27 22 185 71 231 71 20 0 58 38 93 93 14 20 30 37 38 37 7 0 20 8 27 17
12 14 12 15 1 9 -11 -7 -12 -4 -3 13 7 11 16 21 22 21 6 0 7 -5 3 -12 -4 -7
-3 -8 4 -4 6 4 8 14 5 23 -5 13 -2 15 12 10 14 -6 16 -5 6 6 -8 11 -6 18 8 32
19 16 21 16 48 -2 15 -11 36 -17 46 -15 16 3 12 8 -17 28 -20 14 -36 29 -36
34 0 9 112 150 176 222 l33 37 50 -40 c28 -23 51 -43 51 -46 0 -3 -7 1 -16 8
-9 8 -22 14 -28 14 -21 2 -46 17 -41 25 3 5 0 12 -6 16 -8 4 -9 3 -5 -4 4 -7
2 -12 -6 -12 -7 0 -2 -7 10 -16 12 -8 20 -19 18 -23 -6 -9 40 -53 97 -95 20
-15 37 -31 37 -35 0 -5 -22 -37 -50 -71 -55 -69 -59 -80 -30 -80 11 0 20 6 20
13 0 7 16 28 36 45 20 18 33 32 28 32 -4 0 1 9 11 20 37 41 36 18 -1 -27 -59
-74 -59 -74 -43 -68 8 3 29 26 47 51 18 24 38 44 44 44 6 0 8 -3 5 -7 -4 -3 1
-15 10 -26 13 -15 14 -18 3 -13 -8 4 -2 -4 13 -18 15 -14 35 -26 42 -26 8 0
22 -11 31 -25 9 -14 20 -22 25 -19 5 3 12 -2 15 -10 3 -9 10 -14 14 -11 5 3
12 0 16 -6 4 -7 3 -9 -4 -5 -6 3 -14 1 -18 -6 -4 -7 -4 -10 1 -6 10 10 47 -11
40 -22 -9 -15 43 -43 69 -36 16 4 28 0 37 -12 13 -16 12 -16 -6 -3 -11 7 -7 2
8 -13 29 -27 54 -35 41 -13 -5 6 19 -11 52 -38 32 -28 69 -57 80 -65 55 -38
170 -128 183 -143 17 -21 45 -23 38 -3 -3 8 -3 17 1 19 4 2 2 2 -5 1 -7 -2
-31 12 -54 31 -22 19 -36 35 -31 35 6 0 17 -7 26 -15 10 -11 17 -12 22 -4 3 6
0 15 -7 20 -8 5 -10 9 -6 9 5 0 5 5 2 10 -5 8 -12 7 -23 -1 -10 -7 -4 0 12 16
27 26 28 29 11 41 -13 9 -23 10 -37 3 -10 -5 -18 -6 -17 -2 4 21 -3 31 -28 42
-20 9 -23 15 -14 20 9 6 10 11 2 15 -6 4 -11 3 -11 -3 0 -6 -6 -9 -12 -7 -7 1
-10 1 -5 -1 14 -8 7 -22 -8 -17 -8 4 -15 1 -15 -5 0 -6 6 -11 14 -11 18 0 29
-27 15 -36 -6 -3 -21 3 -33 15 -11 11 -39 36 -61 54 -26 21 -39 38 -37 50 5
25 -28 62 -40 45 -5 -8 -1 -18 9 -25 27 -20 7 -26 -22 -7 -18 12 -23 19 -14
25 8 5 -6 18 -40 39 -29 18 -50 35 -47 37 3 3 17 -4 33 -14 49 -35 74 -46 71
-31 -2 7 3 12 10 10 8 -1 11 2 7 8 -3 5 -13 10 -21 10 -8 0 -12 -4 -9 -10 3
-5 3 -10 -1 -10 -12 0 -93 55 -94 63 0 5 -6 14 -13 21 -10 11 -15 11 -25 0 -7
-8 -8 -15 -2 -19 6 -3 10 0 10 7 0 9 3 9 10 -2 14 -22 12 -29 -7 -23 -30 8
-76 50 -69 62 4 6 12 9 17 5 5 -3 7 -10 4 -15 -4 -5 -1 -9 4 -9 6 0 11 7 11
15 0 13 -12 19 -25 13 -2 -2 -12 7 -20 20 -9 12 -22 22 -28 22 -7 0 -6 -4 3
-10 12 -8 12 -10 1 -10 -11 0 -11 -3 -1 -15 9 -11 9 -15 1 -15 -6 0 -17 12
-23 28 -7 15 -23 38 -36 52 -13 13 -19 26 -13 28 6 2 11 9 11 15 0 7 16 29 36
51 32 34 37 37 52 23 9 -8 26 -14 36 -14 16 0 12 7 -18 33 -20 18 -33 35 -27
38 11 7 71 -25 71 -38 0 -5 -8 -2 -17 5 -16 13 -17 12 -5 -3 8 -10 17 -16 20
-15 13 3 132 -90 124 -98 -4 -5 -2 -5 4 -2 6 3 37 -21 70 -55 32 -33 53 -57
45 -53 -9 5 -12 4 -7 -3 4 -7 12 -12 17 -12 5 0 22 -11 37 -25 15 -14 32 -25
38 -25 7 0 21 -8 33 -17 21 -18 21 -18 2 -30 -16 -10 -23 -8 -45 14 -14 14
-23 29 -20 34 3 5 -2 9 -11 9 -10 0 -37 13 -61 30 -66 44 -88 55 -79 38 16
-26 49 -58 62 -58 7 0 13 -5 13 -11 0 -5 5 -7 10 -4 6 3 10 -1 10 -10 0 -9 4
-14 8 -11 10 6 93 -59 87 -68 -3 -3 -2 -4 1 -1 8 6 84 -53 84 -65 0 -5 -9 -12
-21 -15 -20 -7 -22 -30 -1 -30 5 0 14 -3 18 -7 13 -13 26 -9 20 7 -3 8 -2 14
2 14 29 -5 34 2 17 21 -17 19 -17 19 14 7 17 -6 31 -15 31 -19 0 -4 9 -12 20
-18 16 -9 18 -8 14 5 -4 8 -9 15 -13 15 -3 0 -18 10 -33 23 -14 12 -38 30 -52
41 -14 10 -23 23 -20 28 4 6 16 1 28 -11 39 -39 124 -100 130 -94 3 4 6 2 6
-4 0 -5 34 -34 75 -63 l75 -53 -6 -75 c-7 -91 -14 -112 -60 -167 -22 -28 -31
-46 -24 -50 6 -4 19 0 29 9 27 25 31 20 31 -41 0 -44 5 -62 22 -80 26 -28 36
-28 68 -3 30 23 41 25 34 6 -3 -8 -16 -17 -30 -20 -23 -6 -34 -26 -14 -26 5 0
25 -13 43 -30 19 -16 37 -30 39 -30 3 0 13 20 22 44 19 49 10 89 -25 114 -10
7 -17 18 -13 23 3 6 8 49 11 97 2 48 6 115 7 149 l4 61 -41 11 c-44 11 -67 2
-67 -26 0 -8 -4 -12 -8 -9 -5 3 -6 27 -2 52 6 39 5 45 -5 31 -15 -20 17 -43
-315 228 -363 297 -450 368 -477 389 -20 15 -29 17 -50 7 -21 -10 -31 -8 -61
11 -21 12 -39 25 -42 28 -10 13 -92 61 -97 57 -2 -3 11 -15 29 -28 18 -13 44
-33 58 -46 14 -12 36 -31 48 -42 l24 -20 -29 -40 c-26 -37 -52 -48 -62 -26 -3
6 -15 18 -28 28 -13 10 -22 27 -20 39 2 16 -4 21 -32 23 -18 2 -36 7 -40 12
-3 4 -19 14 -36 22 l-30 13 35 29 c73 62 232 83 313 42z m788 4 c4 -5 11 -7
17 -3 17 10 132 -111 132 -138 0 -3 -12 -7 -27 -7 -24 -2 -25 -2 -5 -6 12 -2
22 -9 22 -14 0 -6 -4 -7 -10 -4 -5 3 -10 0 -10 -8 0 -21 -40 -9 -42 12 0 9 -2
22 -2 28 -1 7 -10 20 -20 30 -10 10 -16 13 -13 7 4 -6 -2 -19 -13 -29 -20 -18
-20 -18 -17 1 2 10 7 27 12 37 8 18 -9 47 -28 47 -6 0 -2 -6 8 -14 13 -9 16
-18 10 -32 -4 -10 -7 -23 -6 -28 1 -4 -10 -5 -24 -2 -14 4 -25 2 -25 -3 0 -13
-53 -21 -67 -9 -10 8 -8 16 7 35 22 28 25 43 11 43 -5 0 -11 -10 -13 -22 -3
-27 -46 -38 -59 -16 -6 8 -9 9 -9 1 0 -6 11 -20 25 -30 31 -23 21 -39 -30 -45
-39 -5 -41 -4 -43 21 -1 14 9 44 21 66 40 70 171 124 198 82z m809 9 c-7 -7
-13 -7 -20 0 -6 6 -3 10 10 10 13 0 16 -4 10 -10z m-149 -23 c13 -16 12 -17
-3 -4 -17 13 -22 21 -14 21 2 0 10 -8 17 -17z m-471 -47 c0 -18 -17 8 -24 34
l-7 25 15 -25 c9 -14 15 -29 16 -34z m579 40 c-2 -2 -15 -9 -29 -15 -24 -11
-24 -11 -6 3 16 13 49 24 35 12z m-2619 -146 c49 -137 51 -147 31 -153 -9 -3
-24 -8 -34 -12 -13 -6 -16 -4 -11 10 5 12 2 16 -11 13 -10 -2 -20 3 -23 11 -3
8 0 11 7 7 16 -10 14 2 -9 70 -19 54 -20 65 -8 123 7 35 14 57 16 50 2 -8 21
-61 42 -119z m2230 104 c6 -14 14 -23 19 -20 5 4 7 -4 4 -16 -4 -19 -3 -20 7
-8 10 12 11 11 6 -9 -3 -13 -1 -32 4 -41 13 -25 -32 -45 -60 -28 -19 12 -50
65 -50 86 0 10 46 62 55 62 3 0 10 -12 15 -26z m408 -5 c-3 -8 -7 -3 -11 10
-4 17 -3 21 5 13 5 -5 8 -16 6 -23z m57 21 c3 -6 -1 -7 -9 -4 -18 7 -21 14 -7
14 6 0 13 -4 16 -10z m5 -55 c0 -5 -5 -3 -10 5 -5 8 -10 20 -10 25 0 6 5 3 10
-5 5 -8 10 -19 10 -25z m-60 -1 c0 -2 -9 0 -20 6 -11 6 -20 13 -20 16 0 2 9 0
20 -6 11 -6 20 -13 20 -16z m127 -16 c-3 -8 -6 -5 -6 6 -1 11 2 17 5 13 3 -3
4 -12 1 -19z m-712 2 c3 -5 -1 -10 -9 -10 -9 0 -16 5 -16 10 0 6 4 10 9 10 6
0 13 -4 16 -10z m92 -12 c-3 -8 -6 -5 -6 6 -1 11 2 17 5 13 3 -3 4 -12 1 -19z
m663 -2 c0 -3 -4 -8 -10 -11 -5 -3 -10 -1 -10 4 0 6 5 11 10 11 6 0 10 -2 10
-4z m-1046 -32 c25 -10 19 -20 -14 -22 -28 -2 -38 7 -23 21 8 9 17 9 37 1z
m141 -4 c3 -5 2 -10 -4 -10 -5 0 -13 5 -16 10 -3 6 -2 10 4 10 5 0 13 -4 16
-10z m950 0 c3 -5 2 -10 -4 -10 -5 0 -13 5 -16 10 -3 6 -2 10 4 10 5 0 13 -4
16 -10z m-1847 -45 c-18 -25 -38 -45 -45 -45 -22 0 50 86 74 90 2 0 -12 -20
-29 -45z m866 30 c3 -8 15 -15 26 -15 11 0 20 -7 20 -15 0 -19 -34 -19 -50 0
-16 19 -30 10 -30 -21 0 -21 -3 -24 -27 -18 l-28 6 23 -17 c22 -16 24 -16 42
5 16 19 23 20 47 12 l28 -10 -25 -2 c-22 -2 -21 -3 8 -11 18 -6 32 -15 30 -21
-6 -17 -56 -31 -76 -22 -9 4 -22 6 -28 6 -6 -1 -19 7 -29 18 -10 11 -25 20
-33 20 -11 0 -12 3 -3 14 9 10 7 17 -6 27 -15 12 -16 12 -11 -2 7 -17 -16 -59
-32 -59 -4 0 -6 9 -3 20 3 11 0 20 -6 20 -6 0 -11 -5 -11 -12 0 -6 -9 -3 -21
8 -17 16 -22 16 -29 4 -6 -8 -10 -10 -10 -4 0 7 9 22 21 35 14 17 19 19 15 7
-3 -12 -1 -15 10 -11 8 3 21 0 29 -7 10 -8 15 -9 15 -2 0 6 -10 18 -22 28 -20
14 -20 16 -3 9 56 -20 172 -6 148 18 -3 4 -2 7 4 7 6 0 13 -7 17 -15z m226
-15 c0 -20 0 -20 21 1 20 20 21 20 40 3 22 -19 14 -34 -20 -37 -11 -1 -21 -4
-21 -8 0 -6 -78 -39 -92 -39 -3 0 -5 11 -5 25 0 14 4 22 10 18 6 -3 7 -1 3 5
-7 12 31 52 51 52 7 0 13 -9 13 -20z m-1005 -8 c-3 -3 -11 0 -18 7 -9 10 -8
11 6 5 10 -3 15 -9 12 -12z m266 -9 c13 -16 12 -17 -3 -4 -10 7 -18 15 -18 17
0 8 8 3 21 -13z m799 -48 c-14 -8 -29 -14 -35 -14 -5 0 1 6 15 14 14 8 30 14
35 14 6 0 -1 -6 -15 -14z m-154 -32 c-11 -11 -17 4 -9 23 7 18 8 18 11 1 2
-10 1 -21 -2 -24z m189 8 c3 -5 1 -13 -5 -16 -15 -9 -43 3 -35 15 8 13 32 13
40 1z m-455 -31 c0 -5 -4 -10 -9 -10 -5 0 -16 -2 -24 -5 -8 -4 -14 0 -14 10 0
9 9 15 24 15 13 0 23 -4 23 -10z m92 -18 c4 -15 -1 -17 -36 -13 l-41 4 35 12
c19 7 36 13 36 14 1 0 4 -7 6 -17z m-1316 -43 c19 -22 19 -22 -3 -10 -24 12
-39 31 -25 31 5 0 17 -10 28 -21z m994 -149 c0 -5 -4 -10 -10 -10 -5 0 -10 5
-10 10 0 6 5 10 10 10 6 0 10 -4 10 -10z m-722 -31 c3 -8 1 -11 -3 -7 -4 4
-16 3 -26 -3 -21 -11 -25 1 -7 19 15 15 30 11 36 -9z m382 11 c0 -13 -11 -13
-30 0 -12 8 -11 10 8 10 12 0 22 -4 22 -10z m-305 -36 c-19 -14 -39 -9 -29 7
3 5 10 7 15 4 5 -4 9 -1 9 5 0 6 5 8 12 4 8 -5 6 -11 -7 -20z m1859 -36 c-3
-4 -11 -5 -19 -1 -21 7 -19 12 4 10 11 0 18 -5 15 -9z m76 8 c0 -2 -7 -7 -16
-10 -8 -3 -12 -2 -9 4 6 10 25 14 25 6z m-70 -40 c0 -11 -19 -15 -25 -6 -3 5
1 10 9 10 9 0 16 -2 16 -4z m-1855 -65 c-3 -6 -11 -8 -17 -5 -6 4 -5 9 3 15
16 10 23 4 14 -10z m-65 1 c0 -4 -9 -8 -20 -9 -11 -1 -20 2 -20 8 0 5 9 9 20
9 11 0 20 -4 20 -8z m1865 -2 c-3 -5 -11 -10 -16 -10 -6 0 -7 5 -4 10 3 6 11
10 16 10 6 0 7 -4 4 -10z m-55 -51 c0 -6 7 -8 18 -4 11 4 14 3 7 -4 -12 -12
-57 -3 -49 10 7 13 24 11 24 -2z m-10 -38 c0 -6 -4 -13 -10 -16 -5 -3 -10 1
-10 9 0 9 5 16 10 16 6 0 10 -4 10 -9z m-474 -33 l29 -31 -37 28 c-39 28 -45
35 -30 35 5 0 21 -14 38 -32z m-1712 -25 c-6 -36 -47 -93 -59 -82 -11 12 45
119 62 119 2 0 1 -17 -3 -37z m163 15 c-3 -8 -6 -5 -6 6 -1 11 2 17 5 13 3 -3
4 -12 1 -19z m-47 -18 c0 -5 -5 -10 -11 -10 -5 0 -7 -4 -4 -10 3 -6 -4 -10
-16 -10 -21 0 -22 1 -4 20 20 22 35 26 35 10z m342 -12 c-7 -7 -12 -8 -12 -2
0 14 12 26 19 19 2 -3 -1 -11 -7 -17z m-522 -7 c0 -4 -11 -20 -24 -34 -20 -22
-22 -28 -10 -38 23 -19 16 -29 -13 -17 -39 17 -56 38 -42 55 6 7 17 13 24 13
7 0 18 7 25 15 13 16 40 20 40 6z m357 -7 c-3 -3 -12 -4 -19 -1 -8 3 -5 6 6 6
11 1 17 -2 13 -5z m1785 -22 c-7 -2 -10 -7 -8 -11 3 -4 -1 -8 -8 -8 -11 0 -12
4 -3 18 6 10 16 15 21 12 6 -4 5 -8 -2 -11z m-2062 -17 c0 -17 -4 -23 -15 -19
-11 5 -12 11 -4 25 13 26 19 24 19 -6z m2100 -7 c0 -18 -2 -20 -9 -8 -6 8 -7
18 -5 22 9 14 14 9 14 -14z m-2665 -25 c-4 -10 -6 -53 -6 -96 1 -54 -2 -76
-10 -72 -6 4 -9 15 -6 25 3 14 -1 18 -14 17 -13 -1 -17 -7 -14 -18 5 -16 -11
-36 -21 -27 -6 7 27 100 41 118 7 8 15 27 19 43 3 15 9 27 12 27 3 0 3 -8 -1
-17z m534 -23 c5 -16 17 -30 25 -30 9 0 16 -4 16 -10 0 -15 -15 -12 -54 11
-30 18 -34 24 -26 40 15 27 26 24 39 -11z m2137 -18 c-3 -2 -14 3 -26 11 -15
11 -18 16 -8 20 13 5 42 -22 34 -31z m134 12 c0 -2 -7 -4 -15 -4 -8 0 -15 4
-15 10 0 5 7 7 15 4 8 -4 15 -8 15 -10z m-210 -25 c0 -5 -4 -9 -10 -9 -5 0
-10 7 -10 16 0 8 5 12 10 9 6 -3 10 -10 10 -16z m-1370 -32 c0 -4 -7 -10 -15
-13 -8 -4 -15 -14 -15 -23 0 -13 -2 -13 -9 -2 -5 8 -14 10 -22 6 -20 -13 21
-24 51 -14 23 8 22 6 -8 -22 -19 -17 -40 -28 -48 -25 -9 3 -12 1 -9 -4 7 -11
-6 -18 -40 -23 -11 -2 -29 -8 -41 -14 -35 -20 -99 -40 -112 -35 -10 3 -10 7 0
20 11 14 10 15 -12 8 -14 -5 -61 -9 -105 -9 -47 0 -70 -4 -55 -7 23 -7 23 -8
6 -15 -13 -6 -29 -3 -48 8 -16 9 -36 13 -46 10 -15 -6 -15 -5 -2 9 9 8 29 14
45 13 52 -3 188 12 232 25 23 7 56 26 73 43 18 18 36 27 45 23 10 -3 29 8 52
32 32 34 39 37 60 28 12 -6 23 -15 23 -19z m1387 -4 c3 -9 -8 -10 -35 -4 -2 1
0 6 3 12 8 12 27 7 32 -8z m223 -33 c11 -22 18 -40 15 -40 -2 0 -14 18 -25 40
-11 22 -18 40 -15 40 2 0 14 -18 25 -40z m-179 -4 c-21 -22 -14 -55 8 -42 7 5
11 -1 10 -16 0 -13 -3 -17 -6 -10 -2 6 -11 12 -19 12 -8 0 -14 5 -14 11 0 6
-7 8 -16 5 -8 -3 -12 -2 -9 4 3 5 1 20 -5 32 -11 22 -10 22 4 4 13 -16 18 -17
31 -6 8 7 15 19 15 27 0 8 5 11 11 8 7 -5 3 -15 -10 -29z m134 5 c-3 -6 -14
-11 -23 -11 -13 0 -13 2 4 14 21 15 30 14 19 -3z m-2150 -51 c3 -5 2 -10 -4
-10 -5 0 -13 5 -16 10 -3 6 -2 10 4 10 5 0 13 -4 16 -10z m1943 -22 c7 -7 12
-19 12 -27 -1 -12 -4 -11 -12 4 -6 11 -16 23 -22 27 -7 5 -8 8 0 8 5 0 15 -5
22 -12z m277 -28 c32 -1 -3 -17 -45 -22 -19 -1 -37 -5 -40 -9 -3 -3 -13 3 -22
13 -10 10 -13 18 -7 18 5 0 7 5 3 12 -4 7 -3 8 4 4 7 -4 12 -14 12 -23 0 -12
3 -13 14 -3 8 6 12 18 9 26 -4 12 -1 12 23 -1 16 -8 38 -15 49 -15z m-2337 8
c7 -7 12 -21 12 -33 0 -21 102 -105 128 -105 6 0 12 -6 12 -14 0 -8 12 -17 28
-22 20 -5 23 -8 10 -11 -24 -6 -23 -19 2 -26 13 -3 18 -1 13 6 -4 6 2 8 16 4
12 -3 21 -2 19 3 -5 15 -119 130 -128 130 -5 0 -17 12 -27 26 -16 25 -17 25
-30 8 -12 -17 -13 -16 -13 5 0 12 4 19 10 16 6 -3 10 0 10 6 0 7 19 -5 43 -28
56 -54 142 -92 181 -82 36 10 47 2 23 -15 -9 -7 -17 -18 -17 -25 0 -20 23 -12
55 19 25 24 42 31 84 34 30 2 56 8 60 14 8 12 91 52 108 52 8 0 28 7 44 16 40
20 45 13 23 -26 -23 -37 -92 -80 -131 -80 -16 0 -45 -11 -65 -25 -20 -14 -42
-25 -49 -25 -6 0 -8 -7 -5 -16 5 -12 2 -15 -10 -10 -8 3 -22 6 -30 6 -9 0 -12
4 -9 10 3 5 0 8 -7 6 -7 -3 -26 -8 -43 -12 l-30 -7 30 -7 c26 -6 28 -8 10 -14
-11 -4 -43 -18 -72 -32 -29 -14 -57 -23 -64 -19 -8 6 -8 10 2 16 10 6 11 9 2
9 -23 0 -28 2 -41 12 -7 6 -15 8 -19 4 -12 -12 -41 25 -35 46 4 18 2 20 -21
16 -15 -3 -27 -4 -27 -2 0 1 -3 9 -6 18 -4 11 -1 16 10 16 9 0 16 5 16 11 0 6
-7 9 -14 6 -9 -4 -27 9 -46 31 -18 20 -29 30 -27 21 4 -13 1 -15 -16 -11 -12
3 -17 7 -10 9 6 2 -3 18 -21 35 l-31 32 25 7 c38 11 55 10 68 -3z m622 -10
c-14 -5 -37 -16 -52 -24 -14 -8 -32 -14 -40 -14 -21 1 83 48 107 48 6 1 -1 -4
-15 -10z m245 -86 c-3 -3 -6 -3 -7 -1 -2 2 -14 18 -28 34 l-25 30 32 -29 c18
-16 31 -32 28 -34z m1666 45 c-6 -8 -7 -17 -3 -21 4 -4 0 -6 -8 -4 -10 2 -15
-4 -14 -19 0 -12 -3 -20 -8 -17 -4 3 -8 -4 -8 -15 0 -10 6 -22 13 -24 9 -4 9
-8 -3 -16 -8 -5 -18 -7 -23 -4 -16 10 0 84 24 109 23 25 50 34 30 11z m-2326
-7 c4 -6 11 -7 17 -4 6 4 8 2 5 -4 -8 -12 -47 -4 -47 9 0 12 17 11 25 -1z
m275 -6 c0 -2 -7 -4 -15 -4 -8 0 -15 4 -15 10 0 5 7 7 15 4 8 -4 15 -8 15 -10z
m1655 6 c3 -5 1 -10 -4 -10 -6 0 -11 5 -11 10 0 6 2 10 4 10 3 0 8 -4 11 -10z
m-1820 -28 c-6 -7 -34 11 -29 19 3 5 11 3 19 -4 7 -6 12 -13 10 -15z m122 1
c-3 -3 -11 -2 -17 2 -9 6 -9 10 1 16 14 8 27 -7 16 -18z m377 -22 c8 -7 20
-10 26 -6 6 4 18 1 26 -6 14 -11 13 -14 -6 -24 -20 -10 -20 -13 -6 -18 11 -4
15 -3 10 4 -3 6 6 3 22 -7 15 -11 25 -13 21 -6 -10 15 5 16 20 1 7 -7 13 -7
17 -1 3 5 -10 20 -29 33 -19 13 -35 28 -35 33 0 10 -1 10 103 -73 42 -34 77
-66 77 -70 0 -10 -79 -111 -87 -111 -3 0 -3 7 1 15 6 16 -41 57 -70 61 -9 2
-22 8 -28 16 -6 7 -7 10 -2 6 11 -9 41 21 31 30 -4 4 -10 2 -12 -5 -5 -15 -33
-5 -33 12 0 7 6 16 13 19 6 3 -1 3 -18 0 -27 -4 -28 -3 -12 8 16 12 14 17 -34
59 -40 35 -47 46 -32 44 12 0 28 -7 37 -14z m1427 -28 c13 -17 13 -17 -6 -3
-11 8 -22 16 -24 17 -2 2 0 3 6 3 6 0 17 -8 24 -17z m69 -17 c0 -2 -8 -10 -17
-17 -16 -13 -17 -12 -4 4 13 16 21 21 21 13z m-235 -44 c-2 -2 -13 2 -24 10
-12 8 -18 17 -15 21 3 3 14 -2 25 -11 10 -9 17 -18 14 -20z m-2574 13 c19 -8
27 -14 19 -14 -18 0 -79 27 -64 28 7 1 27 -6 45 -14z m3014 -25 c3 -5 1 -10
-4 -10 -6 0 -11 5 -11 10 0 6 2 10 4 10 3 0 8 -4 11 -10z m-230 -78 c-6 -6
-35 18 -35 29 0 5 9 1 20 -8 11 -9 17 -19 15 -21z m-1332 -103 c-9 -9 -16 -9
-30 2 -16 13 -17 12 -5 -3 19 -23 6 -43 -16 -26 -15 12 -16 11 -3 -4 11 -15
11 -22 -3 -43 -15 -23 -35 -37 -21 -15 3 5 0 7 -9 4 -9 -3 -21 4 -31 20 -10
14 -21 24 -25 21 -4 -2 -13 7 -20 21 -8 13 -20 22 -27 20 -7 -3 -15 0 -19 6
-5 7 -2 8 6 3 9 -5 11 -4 6 4 -4 6 -12 9 -17 6 -5 -4 -9 -1 -9 5 0 6 -5 8 -10
5 -15 -9 -6 -19 76 -81 74 -56 75 -57 57 -78 -10 -11 -18 -22 -19 -24 -1 -1
-7 5 -15 15 -12 15 -12 16 2 11 9 -4 16 -1 16 7 0 7 -6 11 -14 8 -7 -3 -13 1
-13 8 0 7 -11 23 -24 34 -55 48 -137 125 -131 125 3 0 17 -7 30 -16 15 -10 25
-12 25 -5 0 6 -4 11 -8 11 -5 0 -9 7 -9 15 0 8 4 15 9 15 4 0 8 -4 8 -10 0 -5
10 -15 23 -21 l22 -12 -19 22 c-17 18 -17 21 -3 15 11 -4 17 -1 18 7 0 8 4 4
9 -8 5 -13 16 -23 25 -23 8 0 15 -7 15 -15 0 -8 10 -20 23 -26 12 -7 28 -20
35 -31 14 -19 38 -26 27 -8 -4 6 -1 17 5 25 10 12 8 19 -11 35 -13 10 -20 19
-14 20 5 0 -1 7 -13 16 -27 18 -30 49 -4 40 16 -6 16 -5 0 7 -10 8 -15 17 -11
21 4 4 34 -20 67 -53 46 -47 58 -63 49 -72z m173 102 c22 -11 53 -23 68 -27
l27 -6 -55 -55 c-34 -34 -60 -52 -67 -47 -7 4 -9 3 -5 -4 3 -6 -5 -19 -19 -30
-15 -12 -21 -23 -15 -27 5 -3 10 -19 10 -34 0 -32 29 -79 30 -48 0 16 2 16 30
2 16 -8 40 -15 54 -15 13 0 32 -3 41 -6 13 -5 14 -8 3 -15 -9 -6 -4 -9 15 -9
l28 0 -25 23 -25 22 84 73 c80 68 85 71 85 46 0 -20 -4 -25 -17 -20 -16 6 -16
6 -1 -11 15 -17 15 -24 -2 -96 -10 -43 -16 -86 -13 -94 5 -12 3 -14 -7 -8 -10
6 -12 4 -7 -8 3 -9 2 -19 -3 -22 -6 -4 -10 -13 -10 -21 0 -9 5 -12 12 -8 7 5
8 3 3 -6 -6 -10 -11 -10 -20 4 -11 14 -13 15 -19 1 -3 -8 -13 -15 -23 -15 -13
0 -10 -5 11 -19 17 -11 35 -17 40 -14 6 4 0 -6 -14 -21 -21 -24 -26 -25 -36
-11 -10 14 -13 14 -24 0 -8 -9 -9 -15 -4 -14 34 6 20 -6 -31 -27 -63 -26 -131
-30 -190 -11 -29 9 -64 32 -39 25 7 -2 12 2 13 7 1 6 -4 10 -9 10 -6 0 -14 5
-18 10 -4 6 -20 18 -35 28 -15 10 -25 22 -22 27 4 6 1 10 -4 10 -6 0 -11 5
-11 11 0 5 6 7 13 3 9 -6 8 -3 -1 8 -8 9 -19 15 -25 12 -7 -2 -34 9 -60 25
-33 22 -45 35 -40 46 4 12 1 16 -13 13 -13 -2 -19 3 -18 14 1 10 -1 16 -5 16
-15 -5 -81 39 -133 88 -31 30 -62 54 -68 54 -6 0 -8 4 -5 10 3 5 -3 15 -15 22
-11 7 -20 16 -20 20 0 4 -17 24 -37 43 l-38 36 35 -7 c19 -3 41 -11 49 -18 12
-9 13 -8 6 4 -5 8 5 4 22 -10 18 -14 32 -31 32 -38 1 -7 6 -10 11 -7 12 7 72
-40 63 -49 -4 -3 0 -6 7 -6 7 0 10 -3 7 -6 -4 -4 10 -16 31 -27 62 -33 124
-89 112 -101 -18 -18 -11 -27 18 -24 15 2 25 8 24 13 -2 6 -8 9 -13 8 -4 -2
-6 4 -3 12 6 15 18 19 39 15 6 -1 4 4 -2 11 -19 19 4 44 24 27 11 -9 16 -9 23
1 5 9 10 10 14 2 4 -6 2 -11 -3 -11 -20 0 -11 -17 16 -29 23 -11 25 -10 13 3
-7 9 -9 16 -5 16 5 0 0 9 -9 19 -10 11 -15 25 -11 30 11 18 24 12 31 -13 8
-32 46 -52 70 -37 11 6 15 11 9 11 -9 0 -12 17 -16 88 -1 21 -19 33 -19 11 0
-5 -4 -7 -10 -4 -5 3 -10 -1 -10 -10 0 -10 5 -13 13 -9 6 4 9 4 5 -1 -4 -4 -2
-15 5 -23 11 -13 9 -14 -10 -1 -26 16 -29 36 -9 62 17 22 25 22 52 -4 23 -21
23 -21 21 -1 0 11 -4 19 -8 16 -4 -2 -14 5 -22 16 -14 20 -14 20 -41 -5 -15
-14 -30 -25 -33 -25 -7 0 19 33 35 43 7 5 10 12 7 18 -4 5 -3 9 2 9 4 0 22 21
38 45 17 25 30 45 31 45 0 0 18 -9 40 -19z m1035 -8 c13 -15 12 -15 -8 -4 -24
12 -29 21 -14 21 5 0 15 -7 22 -17z m-1196 -33 c3 -5 2 -10 -4 -10 -5 0 -13 5
-16 10 -3 6 -2 10 4 10 5 0 13 -4 16 -10z m1349 -49 c-6 -6 -93 29 -100 41 -6
9 12 6 54 -9 8 -4 10 1 5 13 -4 11 4 7 19 -11 15 -16 25 -32 22 -34z m57 -14
c-10 -9 -11 -8 -5 6 5 13 2 16 -11 11 -15 -6 -16 -4 -5 17 l13 24 10 -23 c7
-16 7 -26 -2 -35z m-1538 29 c4 -10 1 -13 -8 -9 -8 3 -12 9 -9 14 7 12 11 11
17 -5z m1594 -22 c-3 -3 -12 -4 -19 -1 -8 3 -5 6 6 6 11 1 17 -2 13 -5z
m-1701 -66 l29 -33 -32 29 c-31 28 -38 36 -30 36 2 0 16 -15 33 -32z m234 -6
c0 -13 -31 -52 -41 -52 -6 0 -2 14 8 30 16 28 33 39 33 22z m-167 -39 c-4 -10
-9 -11 -19 -2 -19 15 -18 18 5 16 11 -1 17 -6 14 -14z m-206 -12 c9 -11 20
-18 24 -15 5 2 13 -5 19 -16 10 -19 10 -20 -7 -11 -34 20 -78 61 -65 61 7 0
20 -9 29 -19z m91 -69 c34 -30 164 -147 202 -182 29 -27 30 -28 5 -10 -27 20
-55 44 -195 169 -25 23 -42 41 -39 41 3 0 15 -8 27 -18z m768 -73 c10 -17 -13
-36 -27 -22 -12 12 -4 33 11 33 5 0 12 -5 16 -11z m-76 -103 c0 -3 -4 -8 -10
-11 -5 -3 -10 -1 -10 4 0 6 5 11 10 11 6 0 10 -2 10 -4z m-592 -773 c-10 -2
-26 -2 -35 0 -10 3 -2 5 17 5 19 0 27 -2 18 -5z m85 -10 c-7 -2 -21 -2 -30 0
-10 3 -4 5 12 5 17 0 24 -2 18 -5z m-293 -13 c-8 -5 -19 -10 -25 -10 -5 0 -3
5 5 10 8 5 20 10 25 10 6 0 3 -5 -5 -10z m367 4 c-3 -3 -12 -4 -19 -1 -8 3 -5
6 6 6 11 1 17 -2 13 -5z m-327 -33 c0 -5 -7 -11 -15 -15 -9 -3 -15 0 -15 9 0
8 7 15 15 15 8 0 15 -4 15 -9z m380 -56 c-7 -9 -15 -13 -17 -11 -7 7 7 26 19
26 6 0 6 -6 -2 -15z m-1340 -35 c16 -9 87 -100 78 -100 -2 0 -28 25 -58 55
-53 54 -58 65 -20 45z m1962 -67 c12 -15 10 -15 -17 -1 -16 8 -38 13 -48 10
-9 -2 -20 4 -23 12 -3 9 -12 16 -19 16 -8 0 -16 4 -20 9 -9 16 113 -29 127
-46z m753 14 c-7 -26 -75 -99 -75 -80 0 6 7 16 15 23 8 7 15 19 15 26 0 8 4
14 8 14 5 0 14 12 21 26 14 32 24 26 16 -9z m-2265 3 c0 -5 -5 -10 -11 -10 -5
0 -7 5 -4 10 3 6 8 10 11 10 2 0 4 -4 4 -10z m1570 -70 c4 -26 0 -40 -10 -40
-5 0 -10 17 -10 37 0 35 16 38 20 3z"/>
<path d="M2115 5293 c-41 -49 -41 -53 -6 -53 19 0 31 5 31 13 0 7 11 23 25 35
14 13 23 27 20 32 -12 20 -41 9 -70 -27z"/>
<path d="M2280 4980 c0 -5 5 -10 10 -10 6 0 10 5 10 10 0 6 -4 10 -10 10 -5 0
-10 -4 -10 -10z"/>
<path d="M2930 5130 c0 -5 5 -10 10 -10 6 0 10 5 10 10 0 6 -4 10 -10 10 -5 0
-10 -4 -10 -10z"/>
<path d="M1506 4884 c-3 -9 1 -25 9 -37 8 -12 15 -16 15 -10 0 7 -5 15 -10 18
-6 4 -8 15 -5 26 8 23 0 26 -9 3z"/>
<path d="M1597 4795 c-8 -20 -4 -29 11 -24 5 2 6 13 2 23 -6 19 -7 19 -13 1z"/>
<path d="M2030 4860 c0 -5 5 -10 11 -10 5 0 7 5 4 10 -3 6 -8 10 -11 10 -2 0
-4 -4 -4 -10z"/>
<path d="M1490 4609 c0 -5 5 -7 10 -4 6 3 10 8 10 11 0 2 -4 4 -10 4 -5 0 -10
-5 -10 -11z"/>
<path d="M1468 4413 c7 -3 16 -2 19 1 4 3 -2 6 -13 5 -11 0 -14 -3 -6 -6z"/>
<path d="M1927 4674 c-4 -4 -7 -14 -7 -23 0 -11 3 -12 11 -4 6 6 10 16 7 23
-2 6 -7 8 -11 4z"/>
<path d="M1933 4600 c-1 -11 2 -22 8 -25 5 -4 9 3 9 14 0 26 -15 35 -17 11z"/>
<path d="M2011 4574 c0 -11 3 -14 6 -6 3 7 2 16 -1 19 -3 4 -6 -2 -5 -13z"/>
<path d="M2895 4620 c-3 -5 -1 -10 5 -10 6 0 19 -8 28 -17 16 -16 17 -15 20 1
4 21 4 21 -25 30 -12 4 -24 2 -28 -4z"/>
<path d="M2408 4440 c9 -27 17 -48 19 -46 7 6 -19 96 -27 96 -5 0 -1 -22 8
-50z"/>
<path d="M2450 4411 c0 -11 4 -22 9 -25 4 -3 6 6 3 19 -5 30 -12 33 -12 6z"/>
<path d="M2486 4333 c-6 -14 -5 -15 5 -6 7 7 10 15 7 18 -3 3 -9 -2 -12 -12z"/>
<path d="M834 4000 c1 -8 7 -25 14 -37 16 -30 15 -46 -5 -69 -26 -28 -73 -126
-73 -151 0 -33 19 -75 47 -105 14 -14 25 -29 24 -32 -3 -19 0 -26 10 -21 6 5
8 23 4 49 -8 44 -24 83 -25 57 0 -8 -3 -12 -6 -9 -10 10 36 88 51 88 9 0 18
13 22 31 3 18 17 38 32 48 37 23 38 56 1 71 -16 7 -36 10 -45 6 -11 -4 -15 1
-15 17 0 12 -9 33 -20 47 -10 14 -18 18 -16 10z"/>
<path d="M733 3393 c15 -2 37 -2 50 0 12 2 0 4 -28 4 -27 0 -38 -2 -22 -4z"/>
<path d="M1068 3393 c12 -2 30 -2 40 0 9 3 -1 5 -23 4 -22 0 -30 -2 -17 -4z"/>
<path d="M988 3383 c12 -2 30 -2 40 0 9 3 -1 5 -23 4 -22 0 -30 -2 -17 -4z"/>
<path d="M898 3373 c12 -2 32 -2 45 0 12 2 2 4 -23 4 -25 0 -35 -2 -22 -4z"/>
<path d="M3025 3730 c3 -5 8 -10 11 -10 2 0 4 5 4 10 0 6 -5 10 -11 10 -5 0
-7 -4 -4 -10z"/>
<path d="M2345 3060 c3 -5 8 -10 11 -10 2 0 4 5 4 10 0 6 -5 10 -11 10 -5 0
-7 -4 -4 -10z"/>
<path d="M1170 3096 c0 -3 9 -10 20 -16 11 -6 20 -8 20 -6 0 3 -9 10 -20 16
-11 6 -20 8 -20 6z"/>
<path d="M1120 3086 c0 -2 6 -9 14 -15 11 -9 16 -9 22 0 4 8 3 9 -4 5 -7 -4
-12 -2 -12 3 0 6 -4 11 -10 11 -5 0 -10 -2 -10 -4z"/>
<path d="M1082 3015 c-7 -8 -9 -15 -4 -15 5 0 15 7 22 15 16 19 -1 19 -18 0z"/>
<path d="M890 2896 c0 -2 8 -10 18 -17 15 -13 16 -12 3 4 -13 16 -21 21 -21
13z"/>
<path d="M1389 2852 c8 -16 8 -22 1 -22 -6 0 -8 -4 -5 -10 3 -5 11 -10 16 -10
6 0 7 5 4 10 -3 6 -2 10 2 10 11 0 48 -42 48 -54 0 -5 11 -15 25 -23 l25 -15
-24 21 c-38 34 -6 24 43 -14 26 -19 49 -35 51 -35 6 0 -44 43 -95 82 -19 15
-50 39 -69 54 -30 24 -32 25 -22 6z"/>
<path d="M1340 2810 c-13 -8 -12 -11 5 -24 25 -19 69 -18 53 1 -13 17 -21 17
-13 1 4 -7 -2 -3 -12 9 -13 16 -22 20 -33 13z"/>
<path d="M1300 2761 c0 -5 7 -12 16 -15 14 -5 15 -4 4 9 -14 17 -20 19 -20 6z"/>
<path d="M1690 2746 c0 -2 8 -10 18 -17 15 -13 16 -12 3 4 -13 16 -21 21 -21
13z"/>
<path d="M1370 2711 c0 -6 4 -13 10 -16 6 -3 7 1 4 9 -7 18 -14 21 -14 7z"/>
<path d="M1434 2702 c3 -6 0 -13 -6 -15 -10 -4 -10 -8 1 -15 7 -5 10 -15 7
-21 -4 -6 -2 -11 4 -11 8 0 10 9 6 26 -6 23 -5 24 15 14 15 -8 19 -9 15 -1 -4
6 -16 16 -28 22 -12 7 -18 7 -14 1z"/>
<path d="M1775 2670 c10 -11 20 -20 23 -20 3 0 -3 9 -13 20 -10 11 -20 20 -23
20 -3 0 3 -9 13 -20z"/>
<path d="M1170 2660 c0 -3 9 -11 19 -17 17 -11 20 -10 18 5 -1 15 -37 27 -37
12z"/>
<path d="M1507 2649 c12 -12 24 -21 27 -18 2 2 -8 13 -22 23 l-27 19 22 -24z"/>
<path d="M751 2611 c-6 -11 -11 -22 -11 -25 0 -10 95 4 98 14 2 6 8 8 13 4 5
-3 9 -3 9 0 0 3 -10 10 -21 17 -17 9 -20 8 -14 -2 8 -12 -8 -10 -47 6 -11 4
-20 0 -27 -14z"/>
<path d="M900 2610 c0 -5 5 -10 11 -10 5 0 7 5 4 10 -3 6 -8 10 -11 10 -2 0
-4 -4 -4 -10z"/>
<path d="M1590 2582 c0 -5 7 -13 16 -16 8 -3 13 -10 10 -15 -3 -5 2 -15 12
-22 15 -13 16 -12 3 4 -7 9 -9 17 -4 17 13 0 44 -35 37 -42 -3 -3 0 -9 7 -14
8 -4 10 -3 5 4 -9 15 -1 15 25 2 13 -7 19 -7 19 0 0 5 -6 10 -14 10 -7 0 -19
7 -26 15 -11 13 -10 14 4 9 9 -4 16 -1 16 6 0 8 -8 10 -21 7 -14 -4 -33 3 -55
20 -19 14 -34 21 -34 15z"/>
<path d="M1186 2565 c4 -8 11 -15 16 -15 6 0 5 6 -2 15 -7 8 -14 15 -16 15 -2
0 -1 -7 2 -15z"/>
<path d="M1647 2569 c7 -7 15 -10 18 -7 3 3 -2 9 -12 12 -14 6 -15 5 -6 -5z"/>
<path d="M705 2559 c-4 -6 -5 -12 -2 -15 7 -7 37 7 37 17 0 13 -27 11 -35 -2z"/>
<path d="M686 2519 c5 -9 -3 -10 -28 -5 -28 5 -37 3 -42 -9 -3 -9 -2 -14 3
-10 5 3 11 0 13 -5 2 -7 19 -9 44 -4 34 5 41 9 37 25 -3 10 -12 19 -20 19 -8
0 -11 -5 -7 -11z"/>
<path d="M738 2493 c7 -3 16 -2 19 1 4 3 -2 6 -13 5 -11 0 -14 -3 -6 -6z"/>
<path d="M575 2480 c-3 -6 1 -7 9 -4 18 7 21 14 7 14 -6 0 -13 -4 -16 -10z"/>
<path d="M961 2466 c-7 -8 0 -11 20 -10 38 1 46 10 14 16 -13 3 -29 0 -34 -6z"/>
<path d="M1657 2460 c3 -11 9 -20 14 -20 11 0 11 3 3 24 -9 23 -23 20 -17 -4z"/>
<path d="M950 2427 c0 -22 11 -27 34 -15 11 7 25 11 29 10 5 -1 6 2 2 8 -3 5
-15 10 -26 10 -11 0 -18 -4 -14 -9 3 -5 0 -13 -6 -17 -7 -4 -9 -3 -5 4 3 6 2
13 -4 17 -5 3 -10 0 -10 -8z"/>
<path d="M1842 2433 c-6 -2 -10 -9 -6 -14 3 -5 0 -9 -7 -9 -8 0 -6 -6 4 -18
10 -10 14 -21 11 -24 -3 -3 -1 -9 4 -12 5 -3 8 12 6 37 -2 23 -1 35 2 27 12
-28 25 -39 40 -33 11 4 9 11 -11 29 -14 13 -27 24 -28 23 -1 0 -8 -3 -15 -6z"/>
<path d="M700 2396 c-19 -7 -66 -26 -104 -40 -40 -16 -79 -25 -92 -22 -14 4
-43 -5 -79 -24 -31 -17 -63 -30 -70 -30 -19 0 -64 -25 -86 -49 -11 -12 -25
-18 -31 -15 -6 4 -8 3 -5 -4 4 -5 18 -9 32 -7 31 3 32 -3 3 -15 -18 -7 -19 -9
-5 -9 9 -1 50 19 90 43 99 60 141 80 221 105 38 12 94 35 125 51 59 31 60 38
1 16z"/>
<path d="M1915 2361 c3 -5 33 -28 68 -51 l62 -41 -40 36 c-50 45 -56 49 -78
58 -10 4 -16 3 -12 -2z"/>
<path d="M1010 2320 l-25 -8 28 -1 c15 -1 27 4 27 9 0 6 -1 10 -2 9 -2 -1 -14
-5 -28 -9z"/>
<path d="M1875 2319 c-4 -6 -5 -12 -2 -15 2 -3 7 2 10 11 7 17 1 20 -8 4z"/>
<path d="M1035 2280 c-10 -11 -15 -20 -11 -20 11 0 39 30 34 36 -3 2 -13 -5
-23 -16z"/>
<path d="M1631 2286 c-14 -17 -7 -36 14 -36 9 0 12 8 10 21 -6 29 -10 32 -24
15z"/>
<path d="M1919 2172 c19 -15 51 -42 70 -59 42 -38 50 -40 48 -14 0 11 -5 17
-10 14 -11 -7 -48 27 -41 38 3 5 -2 6 -11 3 -10 -4 -15 -2 -13 6 2 7 -5 14
-16 15 -10 2 -23 8 -29 14 -6 6 -16 11 -21 11 -6 -1 4 -13 23 -28z"/>
<path d="M2015 2170 c5 -8 10 -19 10 -25 0 -12 24 -13 28 -1 1 5 -9 16 -23 25
-20 13 -23 13 -15 1z"/>
<path d="M1880 2153 c0 -15 72 -133 81 -133 13 0 -14 59 -48 101 -18 23 -33
37 -33 32z"/>
<path d="M1811 2094 c0 -11 3 -14 6 -6 3 7 2 16 -1 19 -3 4 -6 -2 -5 -13z"/>
<path d="M1776 2044 c-4 -9 -4 -19 -2 -21 8 -8 26 8 26 23 0 19 -16 18 -24 -2z"/>
<path d="M2282 1919 c2 -7 10 -15 17 -17 8 -3 12 1 9 9 -2 7 -10 15 -17 17 -8
3 -12 -1 -9 -9z"/>
<path d="M1975 3010 c3 -5 8 -10 11 -10 2 0 4 5 4 10 0 6 -5 10 -11 10 -5 0
-7 -4 -4 -10z"/>
<path d="M1907 2953 c-13 -13 -7 -21 13 -16 11 3 17 9 14 14 -6 11 -18 12 -27
2z"/>
<path d="M2487 2953 c9 -26 18 -43 20 -37 4 11 -24 84 -32 84 -2 0 3 -21 12
-47z"/>
<path d="M2040 2864 c0 -9 5 -14 12 -12 18 6 21 28 4 28 -9 0 -16 -7 -16 -16z"/>
<path d="M2307 2883 c-4 -3 -7 -11 -7 -17 0 -6 5 -5 12 2 6 6 9 14 7 17 -3 3
-9 2 -12 -2z"/>
<path d="M1165 1935 c-68 -33 -78 -49 -13 -21 18 8 40 17 48 21 8 3 26 12 40
20 48 28 -6 14 -75 -20z"/>
<path d="M618 1893 c21 -8 13 -21 -10 -16 -20 4 -20 3 -6 -6 23 -15 52 -3 37
15 -6 8 -17 14 -23 13 -7 0 -6 -2 2 -6z"/>
<path d="M1060 1766 c0 -9 6 -16 13 -16 16 0 46 20 30 20 -6 0 -18 3 -27 6
-11 4 -16 1 -16 -10z"/>
<path d="M1450 1792 c0 -4 10 -13 23 -21 22 -14 22 -14 3 8 -20 22 -26 25 -26
13z"/>
<path d="M1575 1650 c3 -5 8 -10 11 -10 2 0 4 5 4 10 0 6 -5 10 -11 10 -5 0
-7 -4 -4 -10z"/>
<path d="M1525 1550 c3 -5 8 -10 11 -10 2 0 4 5 4 10 0 6 -5 10 -11 10 -5 0
-7 -4 -4 -10z"/>
<path d="M1570 1546 c0 -2 7 -9 15 -16 9 -7 15 -8 15 -2 0 5 -7 12 -15 16 -8
3 -15 4 -15 2z"/>
<path d="M1450 1500 c0 -5 5 -10 10 -10 6 0 10 5 10 10 0 6 -4 10 -10 10 -5 0
-10 -4 -10 -10z"/>
<path d="M1730 1599 c0 -5 5 -7 10 -4 6 3 10 8 10 11 0 2 -4 4 -10 4 -5 0 -10
-5 -10 -11z"/>
<path d="M1699 1553 c-13 -16 -12 -17 4 -4 9 7 17 15 17 17 0 8 -8 3 -21 -13z"/>
<path d="M1800 1550 c0 -5 5 -10 11 -10 5 0 7 5 4 10 -3 6 -8 10 -11 10 -2 0
-4 -4 -4 -10z"/>
<path d="M1270 1486 c0 -2 8 -10 18 -17 15 -13 16 -12 3 4 -13 16 -21 21 -21
13z"/>
<path d="M1583 1315 c33 -31 33 -35 5 -28 -21 5 -21 3 7 -26 21 -23 37 -31 53
-28 16 3 20 1 12 -8 -7 -8 -4 -17 10 -30 11 -10 17 -21 15 -25 -2 -4 5 -16 18
-26 l22 -19 -19 23 c-30 35 -5 26 48 -18 65 -54 72 -51 13 5 -57 55 -61 68 -8
26 49 -39 64 -40 24 -3 -16 16 -29 36 -27 45 1 9 -3 14 -10 11 -10 -4 -67 36
-159 111 -30 25 -33 16 -4 -10z"/>
<path d="M1660 1290 c14 -10 27 -16 30 -13 6 6 -30 33 -44 33 -6 0 0 -9 14
-20z"/>
<path d="M1754 1286 c6 -34 13 -44 39 -56 20 -10 20 -10 5 3 -22 18 -13 28 16
17 18 -6 22 -4 22 11 0 20 -11 25 -20 10 -10 -16 -51 -7 -48 11 1 9 -2 19 -8
23 -7 4 -9 -3 -6 -19z"/>
<path d="M1700 1261 c0 -5 7 -12 16 -15 14 -5 15 -4 4 9 -14 17 -20 19 -20 6z"/>
<path d="M1555 1240 c3 -5 11 -10 16 -10 6 0 7 5 4 10 -3 6 -11 10 -16 10 -6
0 -7 -4 -4 -10z"/>
<path d="M1501 1237 c2 -1 13 -9 24 -17 19 -14 19 -14 6 3 -7 9 -18 17 -24 17
-6 0 -8 -1 -6 -3z"/>
<path d="M1880 1205 c19 -14 36 -25 39 -25 10 0 -53 49 -63 50 -6 0 5 -11 24
-25z"/>
<path d="M1590 1214 c0 -1 18 -11 39 -21 35 -18 38 -18 28 -2 -8 13 -67 34
-67 23z"/>
<path d="M1836 1089 c18 -17 37 -28 43 -25 16 10 4 26 -20 26 -10 0 -19 4 -19
9 0 5 -8 12 -17 15 -11 4 -5 -6 13 -25z"/>
<path d="M997 6343 c-37 -54 -43 -78 -12 -53 8 7 15 9 15 4 1 -5 8 3 16 19 8
15 19 27 24 27 17 0 10 -93 -11 -150 -34 -95 -35 -97 -16 -81 15 12 18 10 23
-17 5 -24 9 -28 19 -19 7 7 10 16 7 21 -7 12 -4 180 4 254 6 46 4 52 -12 52
-12 -1 -34 -23 -57 -57z"/>
<path d="M3046 6274 c-5 -14 -4 -15 9 -4 17 14 19 20 6 20 -5 0 -12 -7 -15
-16z"/>
<path d="M590 6003 c14 -9 30 -23 35 -29 9 -12 78 -34 100 -33 12 0 -136 78
-150 79 -5 0 2 -8 15 -17z"/>
<path d="M1000 6010 c0 -5 5 -10 10 -10 6 0 10 5 10 10 0 6 -4 10 -10 10 -5 0
-10 -4 -10 -10z"/>
<path d="M542 5985 c10 -11 68 -23 68 -15 0 4 -10 10 -22 14 -29 7 -53 8 -46
1z"/>
<path d="M1040 5980 c0 -5 5 -10 10 -10 6 0 10 5 10 10 0 6 -4 10 -10 10 -5 0
-10 -4 -10 -10z"/>
<path d="M508 5928 c5 -5 16 -8 23 -6 8 3 3 7 -10 11 -17 4 -21 3 -13 -5z"/>
<path d="M1037 5909 c-4 -16 -3 -18 9 -8 16 13 19 29 5 29 -5 0 -11 -9 -14
-21z"/>
<path d="M797 5909 c7 -7 15 -10 18 -7 3 3 -2 9 -12 12 -14 6 -15 5 -6 -5z"/>
<path d="M135 5340 c-3 -5 3 -10 14 -10 12 0 21 5 21 10 0 6 -6 10 -14 10 -8
0 -18 -4 -21 -10z"/>
<path d="M40 5288 c0 -12 1 -19 3 -17 1 2 9 12 16 22 12 14 11 17 -3 17 -10 0
-16 -8 -16 -22z"/>
<path d="M225 5170 c3 -5 10 -10 16 -10 5 0 9 5 9 10 0 6 -7 10 -16 10 -8 0
-12 -4 -9 -10z"/>
<path d="M3180 5130 c-9 -16 -8 -20 5 -20 8 0 15 9 15 20 0 11 -2 20 -5 20 -2
0 -9 -9 -15 -20z"/>
<path d="M298 5123 c7 -3 16 -2 19 1 4 3 -2 6 -13 5 -11 0 -14 -3 -6 -6z"/>
<path d="M3138 5093 c7 -3 16 -2 19 1 4 3 -2 6 -13 5 -11 0 -14 -3 -6 -6z"/>
<path d="M340 5015 c7 -9 15 -13 17 -11 7 7 -7 26 -19 26 -6 0 -6 -6 2 -15z"/>
<path d="M278 5003 c7 -3 16 -2 19 1 4 3 -2 6 -13 5 -11 0 -14 -3 -6 -6z"/>
<path d="M3166 4969 c4 -7 0 -9 -14 -5 -11 4 -23 2 -27 -4 -3 -5 -15 -10 -26
-10 -11 0 -18 -4 -15 -9 7 -11 -22 -23 -35 -15 -17 10 -9 -19 9 -32 13 -10 14
-13 3 -14 -8 0 -24 8 -35 19 -15 13 -27 16 -41 10 l-20 -9 20 2 c23 3 45 -9
45 -24 0 -6 -11 -8 -25 -6 -19 4 -25 1 -23 -11 3 -17 83 -34 103 -22 6 3 23 6
39 6 16 1 31 6 34 13 2 7 8 12 13 12 6 0 8 -4 5 -9 -3 -5 0 -14 8 -20 11 -9
13 2 15 64 2 70 1 75 -19 75 -13 0 -19 -4 -14 -11z"/>
<path d="M2847 4953 c-3 -5 6 -9 20 -10 19 -1 22 1 12 8 -17 11 -26 11 -32 2z"/>
<path d="M2945 4950 c3 -5 11 -10 16 -10 6 0 7 5 4 10 -3 6 -11 10 -16 10 -6
0 -7 -4 -4 -10z"/>
<path d="M2790 4920 c-9 -6 -10 -10 -3 -10 6 0 15 5 18 10 8 12 4 12 -15 0z"/>
<path d="M2822 4910 c-7 -11 -20 -20 -30 -20 -14 0 -15 -2 -2 -10 8 -5 10 -10
4 -10 -5 0 -19 -7 -30 -16 -19 -15 -19 -15 2 -9 11 3 29 -2 40 -11 16 -13 16
-15 2 -10 -21 6 -24 -7 -5 -21 29 -23 142 -5 161 26 7 10 -69 -5 -96 -20 -12
-6 -18 -6 -18 1 0 5 5 10 11 10 5 0 7 5 4 11 -4 6 -14 8 -22 5 -8 -3 -11 -2
-8 3 3 5 -5 11 -17 13 -21 3 -21 4 -4 21 10 9 14 17 9 17 -4 0 -2 4 6 9 7 5
12 14 10 20 -2 6 -10 2 -17 -9z"/>
<path d="M2867 4849 c7 -7 15 -10 18 -7 3 3 -2 9 -12 12 -14 6 -15 5 -6 -5z"/>
<path d="M2730 4831 c0 -6 -10 -19 -22 -31 -15 -14 -17 -20 -7 -20 19 1 52 47
39 55 -5 3 -10 2 -10 -4z"/>
<path d="M3142 4823 c-6 -2 -10 -9 -6 -14 8 -14 21 -11 28 6 6 15 1 17 -22 8z"/>
<path d="M2750 4805 c-7 -8 -8 -15 -2 -15 5 0 15 7 22 15 7 8 8 15 2 15 -5 0
-15 -7 -22 -15z"/>
<path d="M3180 4790 c0 -5 5 -10 10 -10 6 0 10 5 10 10 0 6 -4 10 -10 10 -5 0
-10 -4 -10 -10z"/>
<path d="M2800 4760 c0 -5 5 -10 10 -10 6 0 10 5 10 10 0 6 -4 10 -10 10 -5 0
-10 -4 -10 -10z"/>
<path d="M43 4700 c-29 -12 -29 -17 1 -22 19 -4 24 -1 23 14 -1 10 -1 18 -2
17 0 0 -10 -4 -22 -9z"/>
<path d="M143 4667 c-18 -5 -33 -14 -33 -18 0 -5 -8 -9 -17 -9 -15 0 -15 -2
-4 -9 12 -8 12 -12 2 -25 -19 -22 -34 -20 -28 4 4 17 0 20 -29 20 -19 0 -34
-5 -34 -11 0 -5 4 -7 10 -4 5 3 18 1 27 -4 16 -9 14 -10 -9 -11 -26 0 -28 -3
-28 -45 0 -39 5 -49 43 -85 30 -29 48 -39 62 -36 11 3 32 6 48 6 15 0 27 5 27
11 0 5 -5 7 -11 3 -6 -3 -15 -1 -19 5 -12 20 1 60 21 66 28 9 12 26 -17 19
-23 -6 -54 9 -54 27 0 10 74 -1 78 -13 5 -11 32 -10 32 2 0 6 -4 10 -9 10 -8
0 -71 54 -71 62 0 1 15 4 34 5 31 1 83 21 74 27 -11 10 -68 12 -95 3z m-53
-111 c0 -7 9 -21 20 -31 27 -25 25 -32 -10 -40 -41 -9 -45 -8 -46 14 -1 10 -4
23 -8 29 -3 6 0 13 6 15 8 4 7 6 -4 6 -9 1 -20 6 -24 12 -5 9 1 10 20 5 16 -4
26 -2 26 4 0 6 5 8 10 5 6 -3 10 -12 10 -19z"/>
<path d="M264 4655 c3 -8 1 -15 -5 -15 -6 0 -7 -4 -4 -10 4 -6 10 -6 18 0 7 6
21 17 32 25 19 14 18 14 -14 15 -25 0 -32 -3 -27 -15z"/>
<path d="M476 4620 c-3 -18 -2 -39 3 -48 7 -13 11 -8 16 22 4 21 3 42 -2 47
-7 7 -12 -1 -17 -21z"/>
<path d="M240 4594 c-31 -11 -32 -13 -10 -13 14 0 32 3 40 9 24 15 7 18 -30 4z"/>
<path d="M270 4570 c0 -13 20 -13 40 0 12 8 9 10 -12 10 -16 0 -28 -4 -28 -10z"/>
<path d="M468 4508 c-4 -10 -18 -18 -30 -18 -23 -1 -23 -1 2 -15 29 -16 43 -7
38 26 -3 20 -4 21 -10 7z"/>
<path d="M388 4493 c7 -3 16 -2 19 1 4 3 -2 6 -13 5 -11 0 -14 -3 -6 -6z"/>
<path d="M508 4413 c6 -2 18 -2 25 0 6 3 1 5 -13 5 -14 0 -19 -2 -12 -5z"/>
<path d="M405 4394 c-22 -8 -44 -19 -50 -25 -7 -7 -1 -7 18 0 16 6 42 11 58
11 19 0 29 5 29 15 0 18 -3 18 -55 -1z"/>
<path d="M478 4384 c6 -3 10 -9 7 -14 -3 -4 5 -6 17 -3 16 3 19 2 10 -4 -8 -7
-1 -9 23 -9 21 1 35 6 35 14 0 6 -3 12 -7 13 -5 0 -28 2 -53 4 -25 2 -39 2
-32 -1z"/>
<path d="M331 4315 c0 -46 21 -67 75 -73 34 -3 45 -2 40 7 -4 6 -13 11 -21 11
-30 0 -68 26 -81 55 l-13 30 0 -30z"/>
<path d="M476 4332 c-3 -6 13 -12 39 -14 25 -2 45 0 45 4 0 5 -11 8 -24 8 -13
0 -31 3 -39 6 -8 3 -18 1 -21 -4z"/>
<path d="M3128 4113 c7 -3 16 -2 19 1 4 3 -2 6 -13 5 -11 0 -14 -3 -6 -6z"/>
<path d="M3120 3474 c0 -17 22 -14 28 4 2 7 -3 12 -12 12 -9 0 -16 -7 -16 -16z"/>
<path d="M3030 3400 c0 -5 5 -10 10 -10 6 0 10 5 10 10 0 6 -4 10 -10 10 -5 0
-10 -4 -10 -10z"/>
<path d="M3170 3392 c0 -11 7 -25 15 -32 12 -10 15 -9 15 8 0 11 -7 25 -15 32
-12 10 -15 9 -15 -8z"/>
<path d="M3050 3370 c0 -5 5 -10 11 -10 5 0 7 5 4 10 -3 6 -8 10 -11 10 -2 0
-4 -4 -4 -10z"/>
<path d="M2925 3360 c3 -5 11 -10 16 -10 6 0 7 5 4 10 -3 6 -11 10 -16 10 -6
0 -7 -4 -4 -10z"/>
<path d="M2985 3272 c0 -17 6 -26 14 -24 8 2 27 4 43 5 15 1 28 8 28 15 0 7
-4 11 -9 8 -5 -4 -11 -2 -13 4 -2 6 -17 12 -34 14 -27 4 -30 1 -29 -22z"/>
<path d="M2990 2253 c0 -13 5 -23 10 -23 13 0 13 11 0 30 -8 12 -10 11 -10 -7z"/>
<path d="M55 870 c4 -6 11 -8 16 -5 14 9 11 15 -7 15 -8 0 -12 -5 -9 -10z"/>
<path d="M378 673 c7 -3 16 -2 19 1 4 3 -2 6 -13 5 -11 0 -14 -3 -6 -6z"/>
<path d="M3012 408 c6 -18 28 -21 28 -4 0 9 -7 16 -16 16 -9 0 -14 -5 -12 -12z"/>
<path d="M1223 258 c-29 -14 -34 -31 -17 -57 16 -23 71 -31 58 -8 -6 9 -5 9 7
0 13 -10 25 -10 60 1 38 11 41 14 24 22 -11 4 -27 16 -35 26 -19 23 -68 31
-97 16z"/>
<path d="M1015 239 c-4 -6 -5 -12 -2 -15 2 -3 7 2 10 11 7 17 1 20 -8 4z"/>
<path d="M1715 211 c-28 -22 -58 -47 -67 -55 -10 -9 -22 -16 -28 -16 -5 0 -13
-6 -17 -13 -12 -21 -59 -48 -68 -40 -4 5 -5 3 -2 -3 11 -19 66 -25 100 -10 18
7 45 29 60 49 15 20 48 50 72 67 25 17 45 37 45 45 0 27 -45 16 -95 -24z"/>
<path d="M2928 232 c-19 -4 -24 -17 -9 -26 5 -3 14 1 21 9 15 18 12 23 -12 17z"/>
<path d="M1440 204 c0 -14 3 -14 15 -4 8 7 15 14 15 16 0 2 -7 4 -15 4 -8 0
-15 -7 -15 -16z"/>
<path d="M1480 210 c0 -5 9 -10 20 -10 11 0 20 5 20 10 0 6 -9 10 -20 10 -11
0 -20 -4 -20 -10z"/>
<path d="M12 193 c-6 -2 -10 -9 -6 -14 7 -12 51 -12 59 1 3 6 2 10 -4 10 -5 0
-15 2 -23 4 -7 3 -19 2 -26 -1z"/>
<path d="M1859 179 c-11 -11 -19 -30 -17 -42 2 -18 11 -23 42 -25 21 -2 43 1
49 7 6 6 22 11 37 11 14 0 31 4 39 9 11 7 8 11 -10 16 -13 4 -30 16 -37 26
-18 26 -76 25 -103 -2z m91 -28 c-10 -20 -47 -37 -57 -27 -3 3 6 10 20 15 14
5 28 15 32 20 11 19 16 12 5 -8z"/>
<path d="M18 143 c-12 -3 -18 -14 -18 -34 l0 -29 52 26 c38 19 48 28 37 35
-15 9 -42 10 -71 2z"/>
<path d="M736 71 c-25 -34 -46 -63 -46 -66 0 -3 15 -5 33 -5 30 0 34 4 54 57
13 32 19 61 14 66 -5 5 -29 -18 -55 -52z"/>
<path d="M2829 97 c-8 -7 -18 -23 -22 -37 l-6 -25 25 28 c13 15 24 32 24 38 0
11 -1 11 -21 -4z"/>
<path d="M63 70 c-40 -19 -63 -35 -63 -46 0 -12 5 -14 18 -9 9 4 43 17 74 29
67 25 78 34 58 46 -19 12 -14 13 -87 -20z"/>
</g>
</svg>
