<svg width="27" height="17" viewBox="0 0 27 17" fill="none" xmlns="http://www.w3.org/2000/svg">
<path d="M23.2672 12.0374V8.82683H26.4792V6.41987H23.2672V3.20927H20.8603V6.41987H17.6497V8.82683H20.8603V12.0374H23.2672ZM8.02584 3.12175C9.52836 3.12175 10.5402 3.7636 11.1158 4.30998L13.3994 2.09531C12.0096 0.795688 10.1967 3.66626e-07 8.02584 3.66626e-07C3.59916 -0.00132578 0 3.59518 0 8.02584C0 12.4565 3.59916 16.053 8.02584 16.053C12.6581 16.053 15.7334 12.7947 15.7334 8.2115C15.7334 7.54445 15.6485 7.07101 15.5305 6.56708H8.02186V9.55886H12.4406C12.231 10.82 11.0998 12.9485 8.02584 12.9485C5.36957 12.9485 3.20264 10.7405 3.20264 8.03645C3.20264 5.32846 5.36957 3.12175 8.02584 3.12175Z" fill="white"/>
</svg>