<svg width="18" height="23" viewBox="0 0 18 23" fill="none" xmlns="http://www.w3.org/2000/svg">
<path d="M8.01864e-05 8.13906C8.01864e-05 7.15808 0.171561 6.23133 0.50948 5.36636C0.832336 4.52623 1.31201 3.75516 1.92294 3.09423C2.53263 2.44199 3.23032 1.87798 3.99584 1.41851C4.78127 0.943343 5.6316 0.584865 6.52015 0.354315C7.41943 0.118177 8.34543 -0.000909578 9.2752 5.23055e-06C10.7114 5.23055e-06 12.0479 0.30388 13.2874 0.909108C14.5106 1.5033 15.5518 2.41517 16.3021 3.54941C17.0763 4.70313 17.4609 6.00815 17.4609 7.46322C17.4609 8.33576 17.3752 9.18938 17.1999 10.0241C17.0278 10.8583 16.7543 11.6684 16.3854 12.4362C16.0337 13.1794 15.574 13.8665 15.0211 14.475C14.4654 15.0739 13.7924 15.552 13.044 15.8797C12.2315 16.2358 11.3525 16.415 10.4655 16.4055C9.8489 16.4055 9.23359 16.2605 8.62584 15.9692C8.01809 15.6792 7.58182 15.2807 7.31955 14.7701C7.22751 15.1244 7.10142 15.6363 6.93372 16.3058C6.77233 16.9741 6.66389 17.4053 6.61598 17.6008C6.56554 17.795 6.47223 18.119 6.33606 18.5679C6.24371 18.8999 6.12523 19.2242 5.98175 19.5375L5.548 20.3874C5.36042 20.752 5.15072 21.1049 4.92008 21.444C4.69186 21.7743 4.40942 22.169 4.07276 22.6229L3.88489 22.6897L3.76006 22.5536C3.62514 21.125 3.55579 20.2701 3.55579 19.9876C3.55579 19.1517 3.6554 18.2136 3.8521 17.1721C4.04502 16.1318 4.35015 14.8243 4.75994 13.252C5.16973 11.6809 5.40426 10.7567 5.4673 10.4831C5.17856 9.89422 5.0323 9.12507 5.0323 8.17941C5.0323 7.42413 5.26808 6.71677 5.74092 6.05102C6.21501 5.38779 6.81394 5.05618 7.54021 5.05618C8.09626 5.05618 8.52749 5.24027 8.83641 5.60971C9.14658 5.97789 9.29789 6.4419 9.29789 7.00804C9.29789 7.60822 9.09867 8.47698 8.69771 9.61304C8.29674 10.7504 8.09752 11.5989 8.09752 12.1626C8.09752 12.7337 8.30179 13.2116 8.71032 13.5861C9.11348 13.9608 9.64664 14.1638 10.1969 14.1522C10.6962 14.1522 11.159 14.0388 11.5889 13.8105C12.0122 13.589 12.3785 13.2727 12.6594 12.8863C13.2712 12.0469 13.7074 11.0927 13.9418 10.0808C14.0628 9.54873 14.1561 9.04312 14.2141 8.56776C14.2759 8.08988 14.3024 7.63848 14.3024 7.20978C14.3024 5.63745 13.8031 4.41186 12.8107 3.53428C11.8134 2.6567 10.5147 2.22043 8.9171 2.22043C7.10016 2.22043 5.58078 2.80801 4.36402 3.98694C3.146 5.16209 2.53321 6.65625 2.53321 8.46815C2.53321 8.86785 2.59373 9.25368 2.70847 9.62691C2.82069 9.99887 2.943 10.2952 3.07539 10.5146C3.20653 10.7302 3.33009 10.9408 3.44231 11.1349C3.55579 11.3291 3.61505 11.4678 3.61505 11.551C3.61505 11.8057 3.54823 12.1373 3.41331 12.5471C3.27335 12.9569 3.10818 13.1612 2.90896 13.1612C2.89004 13.1612 2.81187 13.1473 2.67569 13.1183C2.20407 12.9775 1.77816 12.7143 1.44128 12.3555C1.08374 11.9836 0.801571 11.546 0.610351 11.0668C0.419677 10.5894 0.271165 10.0962 0.166518 9.59286C0.0534557 9.1166 -0.00241779 8.62855 8.01864e-05 8.13906Z" fill="white"/>
</svg>